<?xml version="1.0" encoding="UTF-8"?>
<svg version="1.1" xmlns="http://www.w3.org/2000/svg" width="397" height="399">
<path d="M0 0 C131.01 0 262.02 0 397 0 C397 131.67 397 263.34 397 399 C265.99 399 134.98 399 0 399 C0 267.33 0 135.66 0 0 Z " fill="#020201" transform="translate(0,0)"/>
<path d="M0 0 C131.01 0 262.02 0 397 0 C397 131.67 397 263.34 397 399 C265.99 399 134.98 399 0 399 C0 267.33 0 135.66 0 0 Z M6 7 C6 53.86 6 100.72 6 149 C8.66026414 146.33973586 9.41830715 143.29049495 10.625 139.8125 C20.85666042 111.62459331 41.08993698 84.73392828 64.9375 66.6875 C65.67476318 66.12844971 66.41202637 65.56939941 67.17163086 64.9934082 C115.28877718 29.00689363 176.33637634 20.60877925 235 29 C235 29.99 235 30.98 235 32 C233.88882813 31.7834375 232.77765625 31.566875 231.6328125 31.34375 C223.65493179 29.8346151 216.157123 28.61156557 208 29 C210.39189503 31.39189503 211.64944373 31.5253842 214.92578125 32.19140625 C241.07502761 37.8007542 264.71566501 48.09501497 285.53125 65.1015625 C287.92538645 67.15714448 287.92538645 67.15714448 291 68 C288.80590356 72.14440439 285.99256516 76.40336838 282 79 C277.91438375 78.88602358 275.08591038 75.90273532 272.0625 73.4375 C261.49779233 65.10536254 250.5157351 58.95826526 238 54 C236.94039062 53.55785156 235.88078125 53.11570313 234.7890625 52.66015625 C207.38020275 41.52742186 173.92207423 39.32541582 145 45 C144.02289063 45.14824219 143.04578125 45.29648437 142.0390625 45.44921875 C122.73072563 49.09864971 105.76586512 64.86594788 92 78 C91.20722656 78.73992187 90.41445312 79.47984375 89.59765625 80.2421875 C73.1696965 96.00609967 61.00882334 116.70091962 53.15625 137.91796875 C52.13777665 140.63275076 51.02462883 143.27680601 49.875 145.9375 C46.94915578 153.1807485 45 161.181434 45 169 C44.01 169 43.02 169 42 169 C51.5600568 121.42465853 76.18981561 82.97174781 116 55 C115.34 54.67 114.68 54.34 114 54 C111.5090384 55.06625307 109.15007203 56.19177627 106.75 57.4375 C106.03416748 57.80439941 105.31833496 58.17129883 104.58081055 58.54931641 C102.38020086 59.68669925 100.18879091 60.84005546 98 62 C97.05278076 62.49862549 97.05278076 62.49862549 96.08642578 63.00732422 C82.69582287 70.12550592 71.35678124 79.19935058 60.43652344 89.63085938 C59.04401387 90.95805068 57.63551092 92.2683983 56.2265625 93.578125 C41.97582616 107.21636551 30.80372534 123.92972575 23 142 C22.34588204 143.45610229 21.69093851 144.911834 21.03515625 146.3671875 C16.48256332 156.67616759 13.04274855 166.88806878 10.50390625 177.86621094 C10.05026052 179.78717204 9.54394077 181.69551052 9.03125 183.6015625 C4.58741941 201.17115197 5.72131839 222.6875423 11 240 C11.33837891 241.47533203 11.33837891 241.47533203 11.68359375 242.98046875 C19.0232013 274.20232262 34.31891484 301.79873013 55 326 C55.70640625 326.83015625 56.4128125 327.6603125 57.140625 328.515625 C77.23417539 351.50033372 108.74559688 375.13457775 139 382 C139.99 381.67 140.98 381.34 142 381 C141.01902344 380.52691406 140.03804687 380.05382812 139.02734375 379.56640625 C125.44855287 372.94492241 112.47771869 365.93107575 101 356 C100.29359375 355.3915625 99.5871875 354.783125 98.859375 354.15625 C97.52241997 352.99279295 96.19138795 351.82248466 94.8671875 350.64453125 C93.0873255 349.07691221 91.26733876 347.5711004 89.4375 346.0625 C85.53759958 342.70595649 82.26127367 338.97190139 79 335 C78.59233398 334.50467773 78.18466797 334.00935547 77.76464844 333.49902344 C55.62124573 306.4312649 38.59124673 273.21072943 35 238 C35.99 238 36.98 238 38 238 C38.03738281 238.58265625 38.07476562 239.1653125 38.11328125 239.765625 C38.59258535 245.74282907 39.70898058 251.31735434 41.24609375 257.109375 C41.9135976 259.66871619 42.47554101 262.22105558 43 264.8125 C43.7096066 268.04899838 44.71021689 270.95095799 46.109375 273.96875 C47.22736638 276.51855491 48.12271715 279.12919713 49.0625 281.75 C65.27734068 323.83137224 99.35194018 358.87150126 140 378 C143.80355697 379.68536261 147.6548168 381.22716646 151.546875 382.6953125 C153.57349254 383.46102546 155.59028886 384.25579184 157.578125 385.1171875 C180.81839339 394.78813789 207.53695732 392.53556419 232.12173724 392.40557575 C237.72168685 392.38029583 243.32164824 392.37819941 248.92164612 392.37347412 C259.48908562 392.36112152 270.05635639 392.32840612 280.62372214 392.28807616 C294.92949269 392.2346827 309.23531051 392.21335053 323.54115582 392.19006729 C346.02756319 392.15263776 368.5136148 392.07289598 391 392 C391 345.14 391 298.28 391 250 C387.8237249 251.58813755 387.47571673 254.86915886 386.375 258.0625 C370.76956521 301.17130199 336.50820092 336.0161436 295.30859375 355.42602539 C264.34336215 369.42057728 234.31984001 372.36198514 200.75744629 372.19561768 C197.97125848 372.18469113 195.18511894 372.18515257 192.39891338 372.18575573 C189.04066264 372.18541798 185.68245885 372.17658929 182.32421875 372.16796875 C181.0887883 372.16685593 179.85335785 372.1657431 178.58049011 372.16459656 C172.95344305 372.13354635 167.54049162 372.01681334 162 371 C161.67 370.01 161.34 369.02 161 368 C161.99128906 368.32742188 162.98257813 368.65484375 164.00390625 368.9921875 C168.01822678 370.13913622 171.75860244 370.19896279 175.9375 370.125 C176.96327148 370.11146484 176.96327148 370.11146484 178.00976562 370.09765625 C179.67333287 370.07438958 181.33671631 370.03853167 183 370 C180.0589172 368.03927814 178.49581616 367.54040088 175.125 366.8125 C149.57491684 360.58678613 127.45613929 349.53021357 107 333 C107.59283621 329.60807637 108.76743189 327.7892243 111.0625 325.25 C111.61035156 324.63640625 112.15820312 324.0228125 112.72265625 323.390625 C113.14417969 322.93171875 113.56570312 322.4728125 114 322 C117.50473885 323.25298954 120.00144606 324.64075699 122.8125 327.0625 C129.32797349 332.28141606 136.66853142 336.06704396 144 340 C145.33224609 340.72896484 145.33224609 340.72896484 146.69140625 341.47265625 C169.5639726 353.50881215 194.42204905 357.45830063 220 357.4375 C220.85517212 357.43690582 221.71034424 357.43631165 222.59143066 357.43569946 C245.18317154 357.34374101 263.15423977 354.03603015 282 341 C282.61552734 340.57525391 283.23105469 340.15050781 283.86523438 339.71289062 C316.50903357 316.71966588 341.12547694 281.10010454 350 242 C350 240.68 350 239.36 350 238 C350.99 238 351.98 238 353 238 C350.01738688 250.52147721 346.36569911 262.2917551 341 274 C340.69191406 274.67659668 340.38382812 275.35319336 340.06640625 276.05029297 C333.28016703 290.752638 324.55566376 303.72459326 314 316 C313.39414062 316.72832031 312.78828125 317.45664062 312.1640625 318.20703125 C305.83239856 325.69902274 298.38298145 331.58909911 290.56787109 337.44873047 C287.4794877 339.78066072 284.66178084 342.18962459 282 345 C319.0703191 333.8558075 351.17825743 300.05106851 369.13427734 266.90625 C371.2350928 262.89364569 373.22604528 258.83392673 375.16552734 254.74121094 C375.88279719 253.24455542 376.63534731 251.76489906 377.39453125 250.2890625 C384.80554147 235.372934 388.76201792 217.54934448 390 201 C390.05655762 200.24509277 390.11311523 199.49018555 390.17138672 198.71240234 C392.68712937 157.2160779 374.00189432 110.29005389 346.79736328 79.22509766 C345.53679049 77.81206214 344.26864343 76.40579407 343 75 C341.79045575 73.58436707 340.58196282 72.16783449 339.375 70.75 C317.52809899 46.05575408 286.57957395 25.90487949 255 16 C254.01 16.33 253.02 16.66 252 17 C253.54494141 17.67482422 253.54494141 17.67482422 255.12109375 18.36328125 C298.53830892 37.78677225 333.8038393 74.02038865 350.98242188 118.54638672 C357.69429858 137.17952156 361.43589042 155.28398707 363 175 C362.01 175 361.02 175 360 175 C360.061875 173.72125 360.12375 172.4425 360.1875 171.125 C360.1267721 149.53623244 353.06876287 125.95870348 343.03515625 106.98828125 C342.2525994 105.48518149 341.51858644 103.95667421 340.80859375 102.41796875 C328.87935729 77.03010654 307.98818702 53.87074585 285 38 C284.45456543 37.62085449 283.90913086 37.24170898 283.34716797 36.85107422 C274.35577676 30.65735011 264.88921976 25.60595466 255 21 C253.92806396 20.49956177 253.92806396 20.49956177 252.83447266 19.98901367 C247.65223981 17.62370015 242.43213911 15.64854076 237 13.9375 C236.18764893 13.68073486 235.37529785 13.42396973 234.53833008 13.15942383 C226.46560414 10.695431 218.33418028 9.24430833 210 8 C208.65736367 7.73942228 208.65736367 7.73942228 207.28760338 7.47358036 C203.42986991 6.91787257 199.64881682 6.86470722 195.7616272 6.87974548 C194.54112232 6.87846385 194.54112232 6.87846385 193.29596078 6.87715632 C190.5783067 6.87551344 187.86071478 6.88100334 185.14306641 6.88647461 C183.1914673 6.88675676 181.23986809 6.88659819 179.28826904 6.8860321 C173.99539541 6.88574524 168.70254444 6.89162418 163.40967607 6.89860606 C157.87633917 6.90485793 152.34300175 6.90544485 146.80966187 6.90663147 C136.33381354 6.90973937 125.85797566 6.91794549 115.38213193 6.92798096 C101.22448051 6.94124903 87.06682623 6.94664637 72.90917015 6.95248318 C50.60610562 6.96188572 28.30306311 6.98180827 6 7 Z " fill="#DDBB70" transform="translate(0,0)"/>
<path d="M0 0 C84.15 0 168.3 0 255 0 C255 0.33 255 0.66 255 1 C247.95263488 1.16831707 240.90511458 1.32819048 233.85742188 1.48217773 C231.45959123 1.53556744 229.06180291 1.59089442 226.6640625 1.64819336 C223.21884283 1.73018845 219.77353135 1.80522965 216.328125 1.87890625 C214.71855927 1.91945885 214.71855927 1.91945885 213.07647705 1.96083069 C212.07574158 1.98092697 211.0750061 2.00102325 210.04394531 2.02172852 C209.16458313 2.04171402 208.28522095 2.06169952 207.37921143 2.08229065 C205.09868558 2.00341327 203.18137631 1.64562907 201 1 C201 1.66 201 2.32 201 3 C205.455 3.99 205.455 3.99 210 5 C210 5.33 210 5.66 210 6 C142.35 5.67 74.7 5.34 5 5 C5.33 51.2 5.66 97.4 6 145 C7.98 139.72 9.96 134.44 12 129 C21.46719969 109.90781396 33.50505748 93.62612678 48 78 C48.57621094 77.35804687 49.15242188 76.71609375 49.74609375 76.0546875 C84.55829827 38.99403325 134.57822096 25.73339009 183.5546875 24.1953125 C226.0302583 23.01512915 226.0302583 23.01512915 234 27 C234 27.99 234 28.98 234 30 C232.865625 29.855625 231.73125 29.71125 230.5625 29.5625 C229.04169792 29.37474666 227.52086278 29.18726097 226 29 C225.25621094 28.90460937 224.51242188 28.80921875 223.74609375 28.7109375 C218.79111949 28.10772324 213.99157504 27.90924409 209 28 C209.64735107 28.13462646 210.29470215 28.26925293 210.96166992 28.40795898 C239.55210505 34.481 264.2347064 45.59325153 287 64 C287.99 64.66 288.98 65.32 290 66 C289.42946335 69.77235429 287.83356579 71.62716051 285.1875 74.3125 C284.50042969 75.03050781 283.81335938 75.74851562 283.10546875 76.48828125 C281 78 281 78 279.109375 78.015625 C276.09936626 76.56636153 273.63528895 74.53530658 271.0625 72.4375 C260.49779233 64.10536254 249.5157351 57.95826526 237 53 C235.94039062 52.55785156 234.88078125 52.11570313 233.7890625 51.66015625 C206.38020275 40.52742186 172.92207423 38.32541582 144 44 C143.02289063 44.14824219 142.04578125 44.29648437 141.0390625 44.44921875 C121.72473157 48.09978264 104.77529258 63.87226391 91 77 C90.28070313 77.66644531 89.56140625 78.33289063 88.8203125 79.01953125 C72.69435472 94.40071588 60.80947987 115.21284521 53.15234375 135.93359375 C52.1625621 138.56741949 51.0717337 141.11451071 49.9375 143.6875 C46.90872657 151.11726667 45.60397756 159.1678117 44 167 C43.01 167 42.02 167 41 167 C41.15524214 133.15721442 64.50376528 100.12257958 86 76 C86.90685547 74.98099609 86.90685547 74.98099609 87.83203125 73.94140625 C95.45972879 65.88887492 104.97322543 59.37861367 114 53 C92.65193958 61.13422881 74.43989041 74.3216304 58 90 C57.15695313 90.77859375 56.31390625 91.5571875 55.4453125 92.359375 C41.48589331 105.64981244 30.61594947 122.36453878 23 140 C22.34588204 141.45610229 21.69093851 142.911834 21.03515625 144.3671875 C16.48256332 154.67616759 13.04274855 164.88806878 10.50390625 175.86621094 C10.05026052 177.78717204 9.54394077 179.69551052 9.03125 181.6015625 C4.56573895 199.25687007 5.81898877 220.59258725 11 238 C11.60702171 240.6967191 12.12152752 243.40727609 12.625 246.125 C12.7590625 246.81464844 12.893125 247.50429687 13.03125 248.21484375 C13.71344724 251.85554944 14.15857823 255.29503587 14 259 C13.34 259.33 12.68 259.66 12 260 C11.16280617 257.70967689 10.3301071 255.41789043 9.5 253.125 C9.14228516 252.14853516 9.14228516 252.14853516 8.77734375 251.15234375 C7 246.2265625 7 246.2265625 7 244 C6.34 244 5.68 244 5 244 C3.60144133 273.51929214 4.07286679 303.03540523 4.39489746 332.57556152 C4.45958808 338.62960269 4.5180207 344.68370107 4.57643402 350.73780549 C4.70930684 364.49196039 4.85138063 378.24600683 5 392 C6.32 392.33 7.64 392.66 9 393 C9 393.33 9 393.66 9 394 C6.03 394.33 3.06 394.66 0 395 C0 264.65 0 134.3 0 0 Z " fill="#DCBA6E" transform="translate(1,2)"/>
<path d="M0 0 C48.18 0 96.36 0 146 0 C146 48.18 146 96.36 146 146 C143.85630703 142.78446055 143.16299457 140.28598354 142.1875 136.5625 C140.28816982 129.75830618 137.90639774 123.43117797 135 117 C134.57460938 116.04287109 134.57460938 116.04287109 134.140625 115.06640625 C114.54369717 71.13939428 80.77319059 35.30029946 37 15 C36.04770508 14.54995605 36.04770508 14.54995605 35.07617188 14.09082031 C23.71362708 8.74751079 11.95624708 4.79649211 0 1 C0 0.67 0 0.34 0 0 Z " fill="#020100" transform="translate(245,7)"/>
<path d="M0 0 C1.84769953 2.7715493 2.75967855 4.90249392 3.8125 8.0234375 C12.69065699 33.81677661 23.68243749 58.43000666 42 79 C42.78503906 79.89332031 43.57007813 80.78664063 44.37890625 81.70703125 C48.13424987 85.93256617 51.95145237 90.05266606 56 94 C56.62003906 94.65355469 57.24007812 95.30710937 57.87890625 95.98046875 C80.86281342 119.8689304 113.50998007 135.15222939 145 144 C145 144.33 145 144.66 145 145 C97.15 145 49.3 145 0 145 C0 97.15 0 49.3 0 0 Z " fill="#040301" transform="translate(6,247)"/>
<path d="M0 0 C131.01 0 262.02 0 397 0 C397 131.67 397 263.34 397 399 C265.99 399 134.98 399 0 399 C0 267.33 0 135.66 0 0 Z M1 2 C1 132.35 1 262.7 1 397 C14.53 397 28.06 397 42 397 C51.13820439 397.05262459 60.2757628 397.10775629 69.41369438 397.18517876 C75.97631603 397.2407467 82.53899654 397.28888523 89.10166824 397.33810794 C91.45752744 397.35579543 93.81338567 397.37360709 96.16924381 397.39143467 C148.4890737 397.78633936 200.80748386 398.04377571 253.12890625 398.06640625 C254.17271352 398.06688611 255.21652078 398.06736597 256.29195857 398.06786036 C302.86129801 398.08803505 349.43070028 398.03281839 396 398 C396 299 396 200 396 98 C395.67 98 395.34 98 395 98 C394.67 115.49 394.34 132.98 394 151 C393.34 151.33 392.68 151.66 392 152 C392 152.99 392 153.98 392 155 C390.68 154.67 389.36 154.34 388 154 C387.67 152.35 387.34 150.7 387 149 C385.0018952 152.26247931 384.87123396 154.05624993 385.6796875 157.765625 C385.86660156 158.65507812 386.05351562 159.54453125 386.24609375 160.4609375 C386.45363281 161.38132813 386.66117187 162.30171875 386.875 163.25 C387.07480469 164.18585938 387.27460938 165.12171875 387.48046875 166.0859375 C387.97495043 168.39351866 388.48181207 170.69764727 389 173 C380.99069706 136.63048345 368.31535874 103.05215428 343 75 C341.79045575 73.58436707 340.58196282 72.16783449 339.375 70.75 C317.52809899 46.05575408 286.57957395 25.90487949 255 16 C254.01 16.33 253.02 16.66 252 17 C253.54494141 17.67482422 253.54494141 17.67482422 255.12109375 18.36328125 C298.53830892 37.78677225 333.8038393 74.02038865 350.98242188 118.54638672 C357.69429858 137.17952156 361.43589042 155.28398707 363 175 C362.01 175 361.02 175 360 175 C360.061875 173.72125 360.12375 172.4425 360.1875 171.125 C360.1267721 149.53623244 353.06876287 125.95870348 343.03515625 106.98828125 C342.2525994 105.48518149 341.51858644 103.95667421 340.80859375 102.41796875 C328.87935729 77.03010654 307.98818702 53.87074585 285 38 C284.45456543 37.62085449 283.90913086 37.24170898 283.34716797 36.85107422 C274.35567917 30.65728288 264.88907446 25.60645442 255 21 C254.28610107 20.66637451 253.57220215 20.33274902 252.83666992 19.98901367 C247.63442595 17.6127636 242.39310691 15.64838932 236.9375 13.9375 C236.12474609 13.68000977 235.31199219 13.42251953 234.47460938 13.15722656 C227.75989539 11.09578324 221.05777125 9.73085919 214.125 8.640625 C211 8 211 8 208 6 C206.0103005 5.60986284 204.00980131 5.26797351 202 5 C202 4.34 202 3.68 202 3 C202.9288501 3.16749756 203.8577002 3.33499512 204.81469727 3.50756836 C209.86585594 4.22428201 214.87761782 4.01755745 219.96484375 3.87890625 C220.99815323 3.85529526 222.03146271 3.83168427 223.09608459 3.80735779 C226.37671154 3.73115724 229.657076 3.64694656 232.9375 3.5625 C235.16990929 3.50923561 237.40233116 3.45649556 239.63476562 3.40429688 C245.09000399 3.27560156 250.54504944 3.14033984 256 3 C256 2.67 256 2.34 256 2 C171.85 2 87.7 2 1 2 Z M245 7 C247.92110446 9.92110446 251.56411749 10.49132707 255.4375 11.625 C284.3994734 20.49062927 310.01246973 35.12670268 332 56 C333.36949019 57.17312946 334.74413102 58.34028582 336.125 59.5 C358.0445746 78.71290648 375.1061828 107.44014671 384 135 C384.53174691 136.42041982 385.07189589 137.83775956 385.625 139.25 C387.28574449 143.77930315 388.66136305 148.36698701 390 153 C390.33 153 390.66 153 391 153 C391 104.82 391 56.64 391 7 C342.82 7 294.64 7 245 7 Z " fill="#947945" transform="translate(0,0)"/>
<path d="M0 0 C0.99 0 1.98 0 3 0 C3.11069824 0.57967529 3.22139648 1.15935059 3.33544922 1.7565918 C3.84349738 4.40124419 4.35917495 7.04435393 4.875 9.6875 C5.04902344 10.59951172 5.22304688 11.51152344 5.40234375 12.45117188 C6.26403168 16.83939743 7.15391264 20.90106028 9 25 C9.46526166 26.62841581 9.92997435 28.25699257 10.390625 29.88671875 C23.26025804 74.51794615 55.36153794 111.79952665 95.63037109 134.23876953 C102.40495124 137.90295221 109.34278678 140.97781624 116.546875 143.6953125 C118.57349254 144.46102546 120.59028886 145.25579184 122.578125 146.1171875 C145.87680491 155.81244462 172.67809296 153.53522429 197.32366633 153.40557575 C202.95164327 153.3802977 208.57963191 153.37819955 214.20765686 153.37347412 C224.8282199 153.36112099 235.44861508 153.32840483 246.06910473 153.28807616 C258.17579267 153.24311768 270.2824893 153.22131131 282.38924015 153.20129442 C307.25958591 153.15966403 332.12978348 153.0894636 357 153 C357.01458252 151.91992676 357.02916504 150.83985352 357.04418945 149.72705078 C357.10207546 145.72736162 357.17930773 141.72824124 357.26245117 137.72900391 C357.29574643 135.99667579 357.32376397 134.264238 357.34643555 132.53173828 C357.37989807 130.04411993 357.43220658 127.55751096 357.48828125 125.0703125 C357.49467117 124.29317902 357.5010611 123.51604553 357.50764465 122.71536255 C357.56762695 120.53173828 357.56762695 120.53173828 358 117 C359.485 116.01 359.485 116.01 361 115 C361 129.85 361 144.7 361 160 C331.97916911 160.03033845 302.95834458 160.05130189 273.9375 160.0625 C272.29832682 160.06315145 272.29832682 160.06315145 270.62603903 160.06381607 C200.60335169 160.09087595 130.58396124 159.91714772 60.5625 159.5 C59.05675423 159.49103943 59.05675423 159.49103943 57.52058935 159.48189783 C39.86343968 159.37661558 22.20630605 159.26869488 4.54922485 159.15245056 C3.75801328 159.14725247 2.9668017 159.14205439 2.15161401 159.13669878 C-1.50884073 159.11261181 -5.16929355 159.08828421 -8.82974339 159.06346226 C-10.09264667 159.05504779 -11.35554995 159.04663332 -12.65672302 159.03796387 C-13.74482993 159.03058952 -14.83293684 159.02321518 -15.95401669 159.01561737 C-18.96940494 159.00015687 -21.98457803 158.99725189 -25 159 C-25.33 158.34 -25.66 157.68 -26 157 C-26.99 156.67 -27.98 156.34 -29 156 C-30.17001712 153.65996575 -30.13958537 152.25557273 -30.16494751 149.64694214 C-30.17618149 148.73122437 -30.18741547 147.81550659 -30.19898987 146.87203979 C-30.20631638 145.86351959 -30.21364288 144.85499939 -30.22119141 143.81591797 C-30.2326973 142.75512024 -30.24420319 141.69432251 -30.25605774 140.60137939 C-30.29295761 137.06501206 -30.32252314 133.52862755 -30.3515625 129.9921875 C-30.37470582 127.51579565 -30.39809635 125.03940609 -30.42172241 122.5630188 C-30.4703218 117.34233008 -30.51526508 112.12162143 -30.55761719 106.90087891 C-30.60065906 101.60394105 -30.64938723 96.30709711 -30.703125 91.01025391 C-31.27929022 34.21726175 -31.27929022 34.21726175 -30 8 C-28.68 8 -27.36 8 -26 8 C-25.87753906 8.71542969 -25.75507813 9.43085938 -25.62890625 10.16796875 C-24.98864625 13.05112713 -24.06448444 15.58592473 -22.9375 18.3125 C-22.39416016 19.63701172 -22.39416016 19.63701172 -21.83984375 20.98828125 C-21.56269531 21.65214844 -21.28554688 22.31601562 -21 23 C-21 20.03 -21 17.06 -21 14 C-19.04304928 16.93542608 -17.97221688 19.48949937 -16.75 22.78515625 C-7.51953104 47.25158216 3.95453353 68.05831267 21 88 C21.71800781 88.84175781 22.43601563 89.68351562 23.17578125 90.55078125 C43.59966307 113.87681324 72.35426181 132.76113338 102 142 C101.09121094 141.53851563 100.18242187 141.07703125 99.24609375 140.6015625 C78.16326234 129.72878042 58.03093593 115.55282887 43 97 C42.59813477 96.51047852 42.19626953 96.02095703 41.78222656 95.51660156 C23.02516419 72.59434784 10.15364665 47.34433768 2.5 18.6875 C2.24452393 17.7392334 1.98904785 16.7909668 1.72583008 15.81396484 C0.34961251 10.38552423 -0.26251711 5.59817732 0 0 Z M-29 9 C-29 56.85 -29 104.7 -29 154 C18.85 154 66.7 154 116 154 C113.46054987 151.46054987 111.60543894 151.25125169 108.125 150.375 C78.47271801 142.11472145 48.11141594 125.73537101 27 103 C26.175 102.175 25.35 101.35 24.5 100.5 C23.675 99.675 22.85 98.85 22 98 C21.48590576 97.50330811 20.97181152 97.00661621 20.44213867 96.49487305 C-4.1530557 72.4890372 -17.05379433 40.83521482 -28 9 C-28.33 9 -28.66 9 -29 9 Z " fill="#D5B26B" transform="translate(35,238)"/>
<path d="M0 0 C0.99 0 1.98 0 3 0 C3.11069824 0.57967529 3.22139648 1.15935059 3.33544922 1.7565918 C3.84349738 4.40124419 4.35917495 7.04435393 4.875 9.6875 C5.04902344 10.59951172 5.22304688 11.51152344 5.40234375 12.45117188 C6.26403168 16.83939743 7.15391264 20.90106028 9 25 C9.46526166 26.62841581 9.92997435 28.25699257 10.390625 29.88671875 C23.02589331 73.7051813 54.45247567 111.14183156 94.0390625 133.30078125 C99.90890223 136.4987532 105.82844901 139.42589646 112 142 C110.63016497 145.16115776 110.0109362 145.9927092 107 148 C107.33 148.99 107.66 149.98 108 151 C78.22548803 142.84063855 48.17904133 126.81285309 27 104 C26.195625 103.195625 25.39125 102.39125 24.5625 101.5625 C23.716875 100.716875 22.87125 99.87125 22 99 C21.46246094 98.50886719 20.92492188 98.01773438 20.37109375 97.51171875 C-4.02495409 74.54174468 -16.92429557 42.76584563 -28 12 C-28.33 58.86 -28.66 105.72 -29 154 C-29.33 154 -29.66 154 -30 154 C-30.155811 139.68898731 -30.30365851 125.37790991 -30.4429636 111.06672668 C-30.50781682 104.41781372 -30.57516567 97.76894696 -30.64819336 91.12011719 C-31.27427761 33.82661983 -31.27427761 33.82661983 -30 8 C-28.68 8 -27.36 8 -26 8 C-25.87753906 8.71542969 -25.75507813 9.43085938 -25.62890625 10.16796875 C-24.98864625 13.05112713 -24.06448444 15.58592473 -22.9375 18.3125 C-22.39416016 19.63701172 -22.39416016 19.63701172 -21.83984375 20.98828125 C-21.56269531 21.65214844 -21.28554688 22.31601562 -21 23 C-21 20.03 -21 17.06 -21 14 C-19.04304928 16.93542608 -17.97221688 19.48949937 -16.75 22.78515625 C-7.51953104 47.25158216 3.95453353 68.05831267 21 88 C21.71800781 88.84175781 22.43601563 89.68351562 23.17578125 90.55078125 C43.59966307 113.87681324 72.35426181 132.76113338 102 142 C101.09121094 141.53851563 100.18242187 141.07703125 99.24609375 140.6015625 C78.16326234 129.72878042 58.03093593 115.55282887 43 97 C42.59813477 96.51047852 42.19626953 96.02095703 41.78222656 95.51660156 C23.02516419 72.59434784 10.15364665 47.34433768 2.5 18.6875 C2.24452393 17.7392334 1.98904785 16.7909668 1.72583008 15.81396484 C0.34961251 10.38552423 -0.26251711 5.59817732 0 0 Z " fill="#BD944E" transform="translate(35,238)"/>
<path d="M0 0 C84.15 0 168.3 0 255 0 C255 0.33 255 0.66 255 1 C247.95263488 1.16831707 240.90511458 1.32819048 233.85742188 1.48217773 C231.45959123 1.53556744 229.06180291 1.59089442 226.6640625 1.64819336 C223.21884283 1.73018845 219.77353135 1.80522965 216.328125 1.87890625 C214.71855927 1.91945885 214.71855927 1.91945885 213.07647705 1.96083069 C212.07574158 1.98092697 211.0750061 2.00102325 210.04394531 2.02172852 C209.16458313 2.04171402 208.28522095 2.06169952 207.37921143 2.08229065 C205.09868558 2.00341327 203.18137631 1.64562907 201 1 C201 1.66 201 2.32 201 3 C205.455 3.99 205.455 3.99 210 5 C210 5.33 210 5.66 210 6 C142.35 5.67 74.7 5.34 5 5 C5 19.19 5 33.38 5 48 C4.94438391 55.96301097 4.88121219 63.9243999 4.78125 71.88671875 C4.75861364 73.84308121 4.73619994 75.79944626 4.71398926 77.7558136 C4.65697713 82.72828886 4.59709356 87.70072476 4.53643799 92.67315674 C4.47424742 97.81789001 4.41501186 102.9626574 4.35546875 108.10742188 C4.23974131 118.07164842 4.1209563 128.03583564 4 138 C3.01 138.33 2.02 138.66 1 139 C1.01160156 138.36191406 1.02320313 137.72382813 1.03515625 137.06640625 C1.04417969 136.24011719 1.05320313 135.41382813 1.0625 134.5625 C1.07410156 133.73878906 1.08570313 132.91507813 1.09765625 132.06640625 C1.23267348 130.00836062 1.23267348 130.00836062 0 129 C-0.09614133 127.32975331 -0.12187722 125.65541724 -0.12025452 123.98240662 C-0.12163201 122.89787673 -0.12300951 121.81334684 -0.12442875 120.69595242 C-0.12083064 119.49103177 -0.11723253 118.28611113 -0.11352539 117.04467773 C-0.11364593 115.76588525 -0.11376646 114.48709276 -0.11389065 113.16954899 C-0.11411712 109.6992129 -0.1083063 106.22891105 -0.10128021 102.75858307 C-0.09560031 99.50641471 -0.09531791 96.25424792 -0.09460449 93.0020752 C-0.08934971 83.48054557 -0.07538865 73.95902236 -0.0625 64.4375 C-0.041875 43.173125 -0.02125 21.90875 0 0 Z " fill="#EBC875" transform="translate(1,2)"/>
<path d="M0 0 C5.51892087 2.94421913 9.06460428 7.41600127 11.32421875 13.203125 C13.29391201 20.67389015 12.28938208 27.4454599 8.4609375 34.10546875 C5.76096613 37.79388172 3.27050257 39.91366407 -1.12890625 41.27734375 C-7.10918601 42.04386922 -13.60564213 42.48573202 -19.19140625 39.83984375 C-24.87152014 34.88485078 -27.79353419 28.55333756 -28.37890625 21.08984375 C-27.86766622 13.29343324 -25.67475986 8.12642155 -20.04296875 2.6875 C-14.3364688 -1.51667649 -6.68578739 -2.26948746 0 0 Z " fill="#EBD78E" transform="translate(240.12890625,190.72265625)"/>
<path d="M0 0 C6.93 0 13.86 0 21 0 C21 0.99 21 1.98 21 3 C19.35 3.66 17.7 4.32 16 5 C15.67 11.6 15.34 18.2 15 25 C23.91 25 32.82 25 42 25 C41.67 18.4 41.34 11.8 41 5 C39.02 4.34 37.04 3.68 35 3 C35 2.01 35 1.02 35 0 C42.26 0 49.52 0 57 0 C57 0.99 57 1.98 57 3 C55.02 3.66 53.04 4.32 51 5 C51 20.51 51 36.02 51 52 C52.98 52.66 54.96 53.32 57 54 C57 54.66 57 55.32 57 56 C49.74 56 42.48 56 35 56 C35 55.34 35 54.68 35 54 C37.31 53.67 39.62 53.34 42 53 C42 45.08 42 37.16 42 29 C33.09 29 24.18 29 15 29 C15.33 36.26 15.66 43.52 16 51 C17.98 51.99 19.96 52.98 22 54 C22 54.66 22 55.32 22 56 C14.74 56 7.48 56 0 56 C0 55.34 0 54.68 0 54 C2.31 53.34 4.62 52.68 7 52 C6.67 36.49 6.34 20.98 6 5 C4.02 4.34 2.04 3.68 0 3 C0 2.01 0 1.02 0 0 Z " fill="#CBA054" transform="translate(32,175)"/>
<path d="M0 0 C0.7481535 0.00085602 1.49630699 0.00171204 2.26713181 0.00259399 C11.63644447 0.01409992 21.00572159 0.03433968 30.375 0.0625 C30.40548641 14.95832418 30.42593522 29.85414894 30.4375 44.75 C30.43835602 45.84484711 30.43921204 46.93969421 30.44009399 48.06771851 C30.46337284 81.74475731 30.29978885 115.39625045 29.375 149.0625 C28.715 149.3925 28.055 149.7225 27.375 150.0625 C27.045 140.1625 26.715 130.2625 26.375 120.0625 C26.045 120.0625 25.715 120.0625 25.375 120.0625 C25.375 82.1125 25.375 44.1625 25.375 5.0625 C-7.955 5.0625 -41.285 5.0625 -75.625 5.0625 C-75.625 4.7325 -75.625 4.4025 -75.625 4.0625 C-74.1709375 3.876875 -74.1709375 3.876875 -72.6875 3.6875 C-71.1715625 3.378125 -71.1715625 3.378125 -69.625 3.0625 C-69.295 2.4025 -68.965 1.7425 -68.625 1.0625 C-45.75341865 0.05774307 -22.88891533 -0.02637352 0 0 Z " fill="#C89B50" transform="translate(365.625,1.9375)"/>
<path d="M0 0 C4.35313009 2.70599978 7.69220363 6.57661088 9.3125 11.4375 C9.3125 14.4075 9.3125 17.3775 9.3125 20.4375 C0.7325 20.4375 -7.8475 20.4375 -16.6875 20.4375 C-15.64418508 29.28372649 -15.64418508 29.28372649 -10.6875 34.4375 C-7.22658748 36.16795626 -3.47145061 35.92801212 0.3125 35.4375 C3.64058239 33.55336085 3.64058239 33.55336085 6.3125 31.4375 C7.3025 31.4375 8.2925 31.4375 9.3125 31.4375 C7.96094718 35.86076378 6.11359562 37.84162982 2.3125 40.4375 C-3.94498829 42.52332943 -11.29206403 42.5721802 -17.25 39.75 C-23.39682784 33.9183941 -25.93715512 28.66801889 -26.1875 20.125 C-26.08751365 13.38745815 -24.19665775 9.36141519 -19.6875 4.4375 C-13.79653971 -1.04246306 -7.69356987 -1.61028207 0 0 Z " fill="#CBAE6A" transform="translate(154.6875,190.5625)"/>
<path d="M0 0 C4.59699437 0.06643055 4.59699437 0.06643055 6.921875 1.7734375 C11.15045052 6.8726021 11.39711453 10.86909605 11.4375 17.25 C11.458125 18.04921875 11.47875 18.8484375 11.5 19.671875 C11.53882406 25.57313147 10.57951759 29.84220267 6.5 34.375 C3.05265648 36.05208604 -0.05501962 36.17402225 -3.8125 35.5 C-8.05576064 32.74761472 -9.78413634 28.31629313 -10.8125 23.5 C-11.57734801 15.51056357 -11.8367289 9.00194328 -6.8125 2.5 C-4.35192818 0.03942818 -3.40528095 0.12252885 0 0 Z " fill="#090704" transform="translate(231.8125,193.5)"/>
<path d="M0 0 C59.4 0 118.8 0 180 0 C179.01 0.66 178.02 1.32 177 2 C177.99 2.66 178.98 3.32 180 4 C140.4 4 100.8 4 60 4 C60 3.34 60 2.68 60 2 C40.86 2 21.72 2 2 2 C1.67 19.16 1.34 36.32 1 54 C0.67 54 0.34 54 0 54 C0 36.18 0 18.36 0 0 Z " fill="#F8DD91" transform="translate(1,2)"/>
<path d="M0 0 C7.26 0 14.52 0 22 0 C22 0.99 22 1.98 22 3 C20.02 3.66 18.04 4.32 16 5 C16 20.51 16 36.02 16 52 C17.98 52.66 19.96 53.32 22 54 C22 54.66 22 55.32 22 56 C14.74 56 7.48 56 0 56 C0 55.34 0 54.68 0 54 C3.465 53.505 3.465 53.505 7 53 C6.505 41.12 6.505 41.12 6 29 C2.59355605 28.31871121 -0.24581242 27.8454375 -3.64453125 27.68359375 C-4.48564453 27.64169922 -5.32675781 27.59980469 -6.19335938 27.55664062 C-7.05767578 27.51732422 -7.92199219 27.47800781 -8.8125 27.4375 C-10.13797852 27.37272461 -10.13797852 27.37272461 -11.49023438 27.30664062 C-13.65999623 27.20108464 -15.8299791 27.10008929 -18 27 C-18 26.67 -18 26.34 -18 26 C-10.08 25.67 -2.16 25.34 6 25 C6 18.4 6 11.8 6 5 C4.02 4.34 2.04 3.68 0 3 C0 2.01 0 1.02 0 0 Z " fill="#D2A85B" transform="translate(67,175)"/>
<path d="M0 0 C0.33 19.14 0.66 38.28 1 58 C2.32 58.66 3.64 59.32 5 60 C5 60.66 5 61.32 5 62 C-1.27 62 -7.54 62 -14 62 C-14 61.34 -14 60.68 -14 60 C-12.35 59.34 -10.7 58.68 -9 58 C-9 41.17 -9 24.34 -9 7 C-11.97 6.505 -11.97 6.505 -15 6 C-15 4.68 -15 3.36 -15 2 C-13.2508503 1.66223316 -11.50063855 1.32996329 -9.75 1 C-8.77546875 0.814375 -7.8009375 0.62875 -6.796875 0.4375 C-4 0 -4 0 0 0 Z " fill="#E0C57F" transform="translate(272,169)"/>
<path d="M0 0 C0.99 0 1.98 0 3 0 C3.11069824 0.57967529 3.22139648 1.15935059 3.33544922 1.7565918 C3.84349738 4.40124419 4.35917495 7.04435393 4.875 9.6875 C5.13603516 11.05551758 5.13603516 11.05551758 5.40234375 12.45117188 C6.26403168 16.83939743 7.15391264 20.90106028 9 25 C9.46526166 26.62841581 9.92997435 28.25699257 10.390625 29.88671875 C21.89340862 69.77778247 48.7619622 103.48308565 82.9375 126.4375 C83.55189941 126.85056396 84.16629883 127.26362793 84.79931641 127.68920898 C88.41798984 130.07780976 92.07439482 132.1360867 96 134 C95.34 134.33 94.68 134.66 94 135 C94 135.66 94 136.32 94 137 C89.30811591 135.35692775 85.31052533 132.87866637 81.125 130.25 C80.44308594 129.83234375 79.76117188 129.4146875 79.05859375 128.984375 C74.32858271 126.02924429 70.14307536 122.72610347 66 119 C65.28972656 118.38253906 64.57945313 117.76507813 63.84765625 117.12890625 C62.5771725 116.01410541 61.30775384 114.89809025 60.0390625 113.78125 C58.68995797 112.60272191 57.33063304 111.43578264 55.9609375 110.28125 C51.15285362 106.1971633 46.99395117 101.87973836 43 97 C42.59378418 96.50612793 42.18756836 96.01225586 41.76904297 95.50341797 C23.01891148 72.58506712 10.15161096 47.33671565 2.5 18.6875 C2.11678589 17.2651001 2.11678589 17.2651001 1.72583008 15.81396484 C0.34961251 10.38552423 -0.26251711 5.59817732 0 0 Z " fill="#AE8847" transform="translate(35,238)"/>
<path d="M0 0 C6.53580162 0.27686965 9.60013309 2.56691185 14.3125 6.9375 C14.96621582 7.5257959 15.61993164 8.1140918 16.29345703 8.72021484 C18.21366825 10.46177979 20.11075607 12.22494397 22 14 C22.95003906 14.89074219 23.90007812 15.78148437 24.87890625 16.69921875 C30.75300611 22.40785101 36.00168669 28.51593377 41 35 C41.79148437 36.02480469 42.58296875 37.04960938 43.3984375 38.10546875 C63.78240854 65.20054489 79.79572031 102.48226523 78 137 C77.01 137 76.02 137 75 137 C74.90295776 136.11985229 74.90295776 136.11985229 74.80395508 135.22192383 C72.16553621 111.8928657 67.6539644 89.87941518 56.92651367 68.83325195 C56.14662925 67.29012887 55.40992258 65.7252927 54.68359375 64.15625 C43.32556389 39.94477568 23.78202702 18.2924847 2.24609375 2.6875 C1.50488281 2.130625 0.76367188 1.57375 0 1 C0 0.67 0 0.34 0 0 Z " fill="#B79455" transform="translate(285,38)"/>
<path d="M0 0 C5.94 0 11.88 0 18 0 C18 0.99 18 1.98 18 3 C16.68 3.33 15.36 3.66 14 4 C16.20660243 10.73594427 18.57749456 17.40217539 21.01171875 24.05859375 C22 27 22 27 22 29 C22.66 29 23.32 29 24 29 C24.17015625 28.32195312 24.3403125 27.64390625 24.515625 26.9453125 C26.0201708 21.16721639 27.79680752 15.68735595 30.1328125 10.19140625 C30.94471822 8.13969856 31.51989929 6.15065521 32 4 C29.525 3.505 29.525 3.505 27 3 C27 2.01 27 1.02 27 0 C31.95 0 36.9 0 42 0 C42 0.99 42 1.98 42 3 C41.08432251 3.08834106 41.08432251 3.08834106 40.15014648 3.1784668 C37.79348017 3.82127574 37.79348017 3.82127574 36.70727539 6.21801758 C36.15801392 7.66664185 36.15801392 7.66664185 35.59765625 9.14453125 C35.18193359 10.21509766 34.76621094 11.28566406 34.33789062 12.38867188 C33.91701172 13.51853516 33.49613281 14.64839844 33.0625 15.8125 C32.2209227 18.00684452 31.37847646 20.20085597 30.53515625 22.39453125 C29.91664795 24.02189209 29.91664795 24.02189209 29.28564453 25.68212891 C27.29084711 30.83011542 25.15372891 35.9168323 23 41 C21.68 41 20.36 41 19 41 C18.75354736 40.39639648 18.50709473 39.79279297 18.25317383 39.17089844 C16.28034936 34.340356 14.30450666 29.51108176 12.32421875 24.68359375 C10.99949491 21.45228782 9.68314387 18.21852543 8.39453125 14.97265625 C7.97558594 13.92980469 7.55664062 12.88695312 7.125 11.8125 C6.77695312 10.93207031 6.42890625 10.05164063 6.0703125 9.14453125 C4.57887069 6.15620441 2.97762203 4.48881101 0 3 C0 2.01 0 1.02 0 0 Z " fill="#D5B36D" transform="translate(280,191)"/>
<path d="M0 0 C6.6 0 13.2 0 20 0 C20 0.99 20 1.98 20 3 C18.02 3 16.04 3 14 3 C14.93449955 5.68857637 15.87250421 8.37584536 16.8125 11.0625 C17.20405273 12.19075195 17.20405273 12.19075195 17.60351562 13.34179688 C18.85575677 16.91300311 20.15294685 20.4158442 21.69921875 23.87109375 C23 27 23 27 23 30 C23.66 30 24.32 30 25 30 C25.309375 28.2365625 25.309375 28.2365625 25.625 26.4375 C26.79373505 21.05788133 28.84516808 16.1136935 30.96728516 11.05444336 C32.48500259 7.64467061 32.48500259 7.64467061 33 4 C30.525 3.505 30.525 3.505 28 3 C28 2.01 28 1.02 28 0 C32.95 0 37.9 0 43 0 C43 0.99 43 1.98 43 3 C42.40002197 3.03794678 41.80004395 3.07589355 41.18188477 3.11499023 C38.72343009 3.84991578 38.72343009 3.84991578 37.49194336 6.64868164 C36.79790405 8.38686157 36.79790405 8.38686157 36.08984375 10.16015625 C35.83626602 10.78345322 35.58268829 11.40675018 35.32142639 12.04893494 C34.51225452 14.04796185 33.72484242 16.05478885 32.9375 18.0625 C32.40438207 19.38792863 31.86989119 20.71280591 31.33398438 22.03710938 C28.80006643 28.32428086 26.34196247 34.63861406 24 41 C22.68 41 21.36 41 20 41 C18.72647814 38.00113445 17.45668615 35.0007028 16.1875 32 C15.83107422 31.16082031 15.47464844 30.32164062 15.10742188 29.45703125 C13.4638445 25.56672883 11.85531166 21.67637881 10.390625 17.71484375 C9.22107561 14.59056996 7.99496767 11.57303042 6.5625 8.5625 C6.17191406 7.71816406 5.78132812 6.87382812 5.37890625 6.00390625 C4.16387601 3.82291632 4.16387601 3.82291632 1.83984375 3.21484375 C0.92912109 3.10849609 0.92912109 3.10849609 0 3 C0 2.01 0 1.02 0 0 Z " fill="#E3CE88" transform="translate(167,191)"/>
<path d="M0 0 C0.33 2.31 0.66 4.62 1 7 C1.7425 6.21625 2.485 5.4325 3.25 4.625 C6.40909687 1.60949844 8.22757405 0.1729196 12.5625 -0.25 C15 0 15 0 18 2 C18.3125 5 18.3125 5 18 8 C16 10 16 10 13.5 10.3125 C12.2625 10.1578125 12.2625 10.1578125 11 10 C10.34 9.01 9.68 8.02 9 7 C6.39969268 7.35866308 5.22585754 7.76545432 3.3815918 9.68066406 C1.63837032 12.60708286 1.65512622 14.46824638 1.70703125 17.859375 C1.7215332 19.53193359 1.7215332 19.53193359 1.73632812 21.23828125 C1.7740332 22.97658203 1.7740332 22.97658203 1.8125 24.75 C1.82603516 25.92433594 1.83957031 27.09867188 1.85351562 28.30859375 C1.8888522 31.20619298 1.93819021 34.10286427 2 37 C3.65 37.33 5.3 37.66 7 38 C7 38.99 7 39.98 7 41 C0.4 41 -6.2 41 -13 41 C-13 40.34 -13 39.68 -13 39 C-11.35 38.34 -9.7 37.68 -8 37 C-8 27.43 -8 17.86 -8 8 C-10.97 7.505 -10.97 7.505 -14 7 C-14 5.68 -14 4.36 -14 3 C-12.0424015 2.49713066 -10.08389623 1.9977901 -8.125 1.5 C-7.03445312 1.2215625 -5.94390625 0.943125 -4.8203125 0.65625 C-2 0 -2 0 0 0 Z " fill="#D5AF64" transform="translate(108,190)"/>
<path d="M0 0 C0.91007812 0.00902344 1.82015625 0.01804688 2.7578125 0.02734375 C3.80582031 0.04474609 3.80582031 0.04474609 4.875 0.0625 C4.545 0.7225 4.215 1.3825 3.875 2.0625 C2.8025 2.26875 1.73 2.475 0.625 2.6875 C-3.86842876 4.33509055 -4.85203306 5.90977183 -7.1796875 9.89453125 C-8.38736728 12.45497344 -8.38736728 12.45497344 -9.125 17.0625 C-3.185 17.0625 2.755 17.0625 8.875 17.0625 C8.875 17.7225 8.875 18.3825 8.875 19.0625 C2.935 19.0625 -3.005 19.0625 -9.125 19.0625 C-7.78777364 26.53479786 -7.78777364 26.53479786 -4.125 33.0625 C0.07468756 35.60205466 4.08410267 35.78612512 8.875 35.0625 C12.18359472 33.10793223 12.18359472 33.10793223 14.875 31.0625 C15.865 31.3925 16.855 31.7225 17.875 32.0625 C16.06864149 35.88772979 13.95960267 38.35132696 10.16796875 40.33203125 C3.949062 42.31318212 -2.82025982 42.15421903 -8.6875 39.375 C-13.91416282 34.41637118 -16.63966169 30.18021241 -17.49609375 22.9140625 C-17.64653651 15.60431405 -17.13608452 10.59103346 -12.125 5.0625 C-7.93785729 1.26485894 -5.59904631 -0.07178265 0 0 Z " fill="#D5AF67" transform="translate(342.125,190.9375)"/>
<path d="M0 0 C0.99 0 1.98 0 3 0 C2.47276398 6.16320728 1.4593954 11.60123003 -0.5625 17.4375 C-0.82571045 18.20682861 -1.0889209 18.97615723 -1.36010742 19.76879883 C-12.45730689 51.40208418 -31.13589752 78.63928601 -57.6875 99.25 C-58.23446533 99.67482666 -58.78143066 100.09965332 -59.3449707 100.53735352 C-61.79650199 102.41433631 -64.1927447 104.10716709 -66.89453125 105.609375 C-67.93673828 106.29773438 -67.93673828 106.29773438 -69 107 C-69 107.99 -69 108.98 -69 110 C-69.598125 109.649375 -70.19625 109.29875 -70.8125 108.9375 C-73.10813214 107.66695302 -73.10813214 107.66695302 -76 109 C-74.68141303 105.0442391 -72.28865955 104.13465072 -68.875 102.125 C-63.19534707 98.63403372 -58.07854859 94.76483479 -53.0625 90.375 C-52.46099121 89.84922363 -51.85948242 89.32344727 -51.23974609 88.78173828 C-24.78367083 65.26441468 -8.77729868 33.90522896 0 0 Z " fill="#DBC784" transform="translate(350,238)"/>
<path d="M0 0 C6.15475369 -0.43191254 10.1256923 0.06353378 15 4 C20.41903936 9.69693881 19 12.06600138 19 21 C10.42 21 1.84 21 -7 21 C-7 22.98 -7 24.96 -7 27 C-7.33 27 -7.66 27 -8 27 C-8 24.69 -8 22.38 -8 20 C-2.06 20 3.88 20 10 20 C10 19.34 10 18.68 10 18 C4.06 18 -1.88 18 -8 18 C-7.09219106 11.64533745 -6.72754643 9.71424989 -3 5 C-0.08235 3.0549 1.62537285 2.54723683 5 2 C3.35 1.67 1.7 1.34 0 1 C0 0.67 0 0.34 0 0 Z " fill="#BC9856" transform="translate(341,190)"/>
<path d="M0 0 C0.33 0 0.66 0 1 0 C1 9.57 1 19.14 1 29 C-64.01 29 -129.02 29 -196 29 C-196 28.67 -196 28.34 -196 28 C-156.60791644 27.03696419 -117.21986785 26.71849928 -77.81826234 26.48259127 C-69.41347838 26.4321287 -61.00872175 26.37763296 -52.60396457 26.32291877 C-35.4026678 26.21102418 -18.20134449 26.10434207 -1 26 C-0.67 17.42 -0.34 8.84 0 0 Z " fill="#D9C184" transform="translate(395,369)"/>
<path d="M0 0 C0.495 0.99 0.495 0.99 1 2 C1.66 2.33 2.32 2.66 3 3 C2.17757812 3.78761719 1.35515625 4.57523437 0.5078125 5.38671875 C-17.48190575 22.84023887 -31.13682411 43.36146971 -39.84765625 66.93359375 C-40.8374379 69.56741949 -41.9282663 72.11451071 -43.0625 74.6875 C-46.09127343 82.11726667 -47.39602244 90.1678117 -49 98 C-49.99 98 -50.98 98 -52 98 C-51.83859433 62.81356346 -26.58074922 26.50408746 -2.75 2.625 C-1.8425 1.75875 -0.935 0.8925 0 0 Z " fill="#CDB371" transform="translate(94,71)"/>
<path d="M0 0 C0.33 0 0.66 0 1 0 C1 46.86 1 93.72 1 142 C-65.66 142 -132.32 142 -201 142 C-201 141.67 -201 141.34 -201 141 C-134.67 141 -68.34 141 0 141 C-0.33 97.44 -0.66 53.88 -1 9 C-1.66 10.65 -2.32 12.3 -3 14 C-3.66 14 -4.32 14 -5 14 C-3.45730076 9.27934033 -1.92205381 4.58335908 0 0 Z " fill="#302712" transform="translate(390,250)"/>
<path d="M0 0 C1.09793381 -0.00021904 1.09793381 -0.00021904 2.2180481 -0.0004425 C4.63668789 0.00025399 7.05525061 0.00803411 9.47387695 0.01586914 C11.15110736 0.01773425 12.82833831 0.01915772 14.50556946 0.02015686 C18.91966252 0.02397469 23.33372267 0.03379873 27.74780273 0.04486084 C32.25219274 0.05509072 36.75658806 0.05965786 41.26098633 0.06469727 C50.09889141 0.07542164 58.93677207 0.09248928 67.7746582 0.11352539 C67.7746582 0.44352539 67.7746582 0.77352539 67.7746582 1.11352539 C60.72729308 1.28184246 53.67977278 1.44171587 46.63208008 1.59570312 C44.23424943 1.64909283 41.83646112 1.70441981 39.4387207 1.76171875 C35.99350104 1.84371384 32.54818955 1.91875504 29.1027832 1.99243164 C27.49321747 2.03298424 27.49321747 2.03298424 25.85113525 2.07435608 C24.85039978 2.09445236 23.84966431 2.11454865 22.81860352 2.13525391 C21.93924133 2.15523941 21.05987915 2.17522491 20.15386963 2.19581604 C17.87334379 2.11693866 15.95603451 1.75915446 13.7746582 1.11352539 C13.7746582 1.77352539 13.7746582 2.43352539 13.7746582 3.11352539 C18.2296582 4.10352539 18.2296582 4.10352539 22.7746582 5.11352539 C22.7746582 5.44352539 22.7746582 5.77352539 22.7746582 6.11352539 C-44.5453418 5.78352539 -111.8653418 5.45352539 -181.2253418 5.11352539 C-181.2253418 4.78352539 -181.2253418 4.45352539 -181.2253418 4.11352539 C-156.70530564 3.30587312 -132.1990005 3.03197172 -107.66674805 3.08618164 C-106.28052145 3.08891792 -104.89429479 3.09162757 -103.50806808 3.09431076 C-91.40029407 3.11857698 -79.2925568 3.15463707 -67.18484777 3.20102161 C-60.02243753 3.22844408 -52.86006189 3.25024484 -45.69760555 3.26103204 C-42.32951156 3.26647415 -38.96152621 3.27579369 -35.59347725 3.29442024 C-31.88421804 3.31351307 -28.17512181 3.32051148 -24.46582031 3.32470703 C-22.8136853 3.33784943 -22.8136853 3.33784943 -21.12817383 3.35125732 C-20.12456314 3.34995316 -19.12095245 3.34864899 -18.08692932 3.3473053 C-17.21507775 3.3504477 -16.34322618 3.35359011 -15.44495487 3.35682774 C-12.93764318 3.25447974 -12.93764318 3.25447974 -10.2253418 1.11352539 C-6.73855396 -0.04873722 -3.62530059 -0.01887558 0 0 Z " fill="#DCC584" transform="translate(188.225341796875,1.886474609375)"/>
<path d="M0 0 C48.18 0 96.36 0 146 0 C146 48.18 146 96.36 146 146 C143.6960757 142.54411355 143.76156897 141.31423519 143.79745483 137.24836731 C143.80311966 136.04943344 143.80878448 134.85049957 143.81462097 133.61523438 C143.83116226 132.29821533 143.84770355 130.98119629 143.86474609 129.62426758 C143.8751713 128.22483428 143.8847067 126.82539411 143.89341736 125.4259491 C143.91960757 121.62447856 143.95827352 117.82322434 143.99914122 114.02188706 C144.03973234 110.05010511 144.06890327 106.0782399 144.09927368 102.10636902 C144.15853378 94.584032 144.22809858 87.0618268 144.30134451 79.53961438 C144.39972086 69.37558968 144.48222228 59.21143703 144.56560135 49.04728031 C144.69740319 33.03138428 144.85045218 17.01576292 145 1 C100.45 1 55.9 1 10 1 C10.33 1.99 10.66 2.98 11 4 C7.37 3.01 3.74 2.02 0 1 C0 0.67 0 0.34 0 0 Z " fill="#4A3719" transform="translate(245,7)"/>
<path d="M0 0 C7 21.53435115 7 21.53435115 7 30 C3.7 30 0.4 30 -3 30 C-3.18175781 29.18917969 -3.36351562 28.37835938 -3.55078125 27.54296875 C-5.02332774 21.05621267 -6.60040496 14.63244644 -8.44921875 8.2421875 C-9 6 -9 6 -9 3 C-3.375 0 -3.375 0 0 0 Z " fill="#CEA961" transform="translate(344,145)"/>
<path d="M0 0 C2.91405058 0.33247557 3.92194053 0.91761248 5.97265625 3.08203125 C7.00712891 4.43361328 7.00712891 4.43361328 8.0625 5.8125 C23.36291191 25.14460801 41.19084193 40.34181288 63 52 C62.01 52.495 62.01 52.495 61 53 C61 53.66 61 54.32 61 55 C56.30811591 53.35692775 52.31052533 50.87866637 48.125 48.25 C47.10212891 47.62351562 47.10212891 47.62351562 46.05859375 46.984375 C41.32858271 44.02924429 37.14307536 40.72610347 33 37 C32.28972656 36.38253906 31.57945313 35.76507813 30.84765625 35.12890625 C29.5771725 34.01410541 28.30775384 32.89809025 27.0390625 31.78125 C25.68995797 30.60272191 24.33063304 29.43578264 22.9609375 28.28125 C15.90063982 22.28408595 10.24384092 15.40328 4.5625 8.125 C4.11277832 7.55313965 3.66305664 6.9812793 3.19970703 6.39208984 C0 2.23631979 0 2.23631979 0 0 Z " fill="#B6904F" transform="translate(68,320)"/>
<path d="M0 0 C0.70125 0.28875 1.4025 0.5775 2.125 0.875 C0.28119597 5.61621037 0.28119597 5.61621037 -0.93359375 7.62890625 C-3.97706409 14.89029815 -1.93142583 25.21591274 -0.875 32.875 C-1.865 32.545 -2.855 32.215 -3.875 31.875 C-3.875 32.535 -3.875 33.195 -3.875 33.875 C-7.01307951 32.79290362 -7.84407788 31.92768214 -9.5625 29 C-12.58643032 21.8001659 -12.60237876 15.40654158 -9.921875 8.03515625 C-7.8463363 3.75242155 -5.14089943 -0.22351737 0 0 Z " fill="#F0DC93" transform="translate(223.875,193.125)"/>
<path d="M0 0 C12.94111221 3.1214743 25.58762383 9.23711042 37 16 C36.67 17.98 36.34 19.96 36 22 C36.66 22.33 37.32 22.66 38 23 C33.22326563 22.41904582 29.5002791 20.25081669 25.375 17.9375 C16.19795523 12.91824743 6.69340005 8.90502505 -3 5 C-2.01 3.35 -1.02 1.7 0 0 Z " fill="#CFA965" transform="translate(261,13)"/>
<path d="M0 0 C6.53580162 0.27686965 9.60013309 2.56691185 14.3125 6.9375 C14.96621582 7.5257959 15.61993164 8.1140918 16.29345703 8.72021484 C18.21366825 10.46177979 20.11075607 12.22494397 22 14 C22.95003906 14.89074219 23.90007812 15.78148437 24.87890625 16.69921875 C33.40171306 24.9819465 42.20769633 34.55150366 48 45 C48 46.32 48 47.64 48 49 C47.34 49 46.68 49 46 49 C44.44744946 46.94613666 42.99773058 44.88375005 41.5625 42.75 C36.59209666 35.58949566 31.05851308 29.25715286 25 23 C24.52304687 22.49726562 24.04609375 21.99453125 23.5546875 21.4765625 C16.98113811 14.5514864 10.11544568 8.52066589 2.421875 2.86328125 C1.62265625 2.24839844 0.8234375 1.63351563 0 1 C0 0.67 0 0.34 0 0 Z " fill="#C4A15E" transform="translate(285,38)"/>
<path d="M0 0 C1.8368763 0.00212242 1.8368763 0.00212242 3.71086121 0.00428772 C7.57158998 0.0098263 11.4322579 0.02236685 15.29296875 0.03515625 C17.93163978 0.0401792 20.57031173 0.04474071 23.20898438 0.04882812 C29.6328328 0.05977551 36.05664642 0.07645107 42.48046875 0.09765625 C42.48046875 0.42765625 42.48046875 0.75765625 42.48046875 1.09765625 C31.26046875 1.42765625 20.04046875 1.75765625 8.48046875 2.09765625 C11.78046875 2.42765625 15.08046875 2.75765625 18.48046875 3.09765625 C18.48046875 3.42765625 18.48046875 3.75765625 18.48046875 4.09765625 C4.9501455 5.11137335 -8.51861967 5.21762374 -22.08203125 5.16015625 C-24.17252496 5.15512595 -26.26301985 5.15056578 -28.35351562 5.14648438 C-33.40888418 5.13561206 -38.4641941 5.1184338 -43.51953125 5.09765625 C-43.51953125 4.76765625 -43.51953125 4.43765625 -43.51953125 4.09765625 C-42.6275 4.04867188 -41.73546875 3.9996875 -40.81640625 3.94921875 C-39.06070313 3.83707031 -39.06070313 3.83707031 -37.26953125 3.72265625 C-35.52929688 3.61824219 -35.52929688 3.61824219 -33.75390625 3.51171875 C-30.6538248 3.31127904 -30.6538248 3.31127904 -28.68644714 2.11045837 C-20.61820711 -1.66058353 -8.75300693 -0.03901831 0 0 Z " fill="#D2AA62" transform="translate(288.51953125,1.90234375)"/>
<path d="M0 0 C2.8442752 0.03568087 4.06582297 0.1844816 6.625 1.5625 C10.01200116 5.22046126 9.1875 8.09487081 9.1875 13.25 C3.2475 13.25 -2.6925 13.25 -8.8125 13.25 C-8.8125 6.45958118 -7.41253334 0.48606776 0 0 Z " fill="#0F0C06" transform="translate(146.8125,193.75)"/>
<path d="M0 0 C2.91502228 0.06268865 4.05123967 0.23214135 6.625 1.75 C8.94129007 5.54871572 8.92729921 8.88908659 9.1875 13.3125 C3.2475 13.3125 -2.6925 13.3125 -8.8125 13.3125 C-8.8125 6.49241674 -7.39745145 0.60634848 0 0 Z " fill="#0D0904" transform="translate(342.8125,193.6875)"/>
<path d="M0 0 C0.99 0 1.98 0 3 0 C2.47274716 6.16340387 1.45886543 11.60093097 -0.5625 17.4375 C-0.95514038 18.58822998 -0.95514038 18.58822998 -1.35571289 19.76220703 C-5.93026086 32.82740337 -11.63863424 45.26782332 -19 57 C-20.32 56.34 -21.64 55.68 -23 55 C-22.50371094 54.16339844 -22.00742187 53.32679688 -21.49609375 52.46484375 C-11.73481474 35.82662994 -4.51403172 18.79786917 0 0 Z " fill="#BB9E5F" transform="translate(350,238)"/>
<path d="M0 0 C10.3119505 -1.21914686 10.3119505 -1.21914686 14.3203125 1.67578125 C19.53584256 7.64418071 20 10.64441963 20 19 C11.09 19 2.18 19 -7 19 C-7 18.34 -7 17.68 -7 17 C-0.73 17 5.54 17 12 17 C11.7525 15.246875 11.505 13.49375 11.25 11.6875 C11.11078125 10.70136719 10.9715625 9.71523437 10.828125 8.69921875 C9.8396271 5.47727512 8.90498122 4.62337186 6 3 C2.84881675 2.27954633 2.84881675 2.27954633 0 2 C0 1.34 0 0.68 0 0 Z " fill="#ECD18A" transform="translate(144,191)"/>
<path d="M0 0 C0.33 0 0.66 0 1 0 C1.33 23.76 1.66 47.52 2 72 C2.99 71.505 2.99 71.505 4 71 C3.125 75.875 3.125 75.875 2 77 C1.83996512 79.66426685 1.74057111 82.30560428 1.68359375 84.97265625 C1.66281265 85.77029892 1.64203156 86.56794159 1.62062073 87.38975525 C1.55503842 89.94724611 1.49620033 92.5048428 1.4375 95.0625 C1.39432301 96.79232882 1.35070899 98.52214679 1.30664062 100.25195312 C1.19934828 104.5011926 1.09810574 108.7505389 1 113 C0.01 113.495 0.01 113.495 -1 114 C-1.03119464 105.12501743 -1.05118193 96.25002987 -1.0625 87.375 C-1.06335602 86.70858994 -1.06421204 86.04217987 -1.06509399 85.35557556 C-1.09731492 56.89483566 -0.65614188 28.45356087 0 0 Z " fill="#E7C77F" transform="translate(392,278)"/>
<path d="M0 0 C5.92943855 2.76884197 11.00112902 5.96210942 16.1875 9.9375 C16.87263672 10.44990234 17.55777344 10.96230469 18.26367188 11.49023438 C22.1428957 14.42858774 25.6508838 17.46879593 29 21 C28.34 21.33 27.68 21.66 27 22 C27 21.34 27 20.68 27 20 C25.68 19.67 24.36 19.34 23 19 C23 18.34 23 17.68 23 17 C22.34 17 21.68 17 21 17 C21 18.32 21 19.64 21 21 C18.05627161 19.59794755 15.37786631 17.99656738 12.671875 16.1796875 C11.87265625 15.64472656 11.0734375 15.10976563 10.25 14.55859375 C9.425 14.00300781 8.6 13.44742188 7.75 12.875 C6.90953125 12.31167969 6.0690625 11.74835937 5.203125 11.16796875 C3.13401047 9.78072151 1.06636617 8.39133629 -1 7 C-0.67 4.69 -0.34 2.38 0 0 Z " fill="#C9A45F" transform="translate(298,30)"/>
<path d="M0 0 C4.95 0 9.9 0 15 0 C15 0.99 15 1.98 15 3 C14.08758545 3.08072754 14.08758545 3.08072754 13.15673828 3.16308594 C10.77477736 3.82783776 10.77477736 3.82783776 9.65966797 6.32910156 C9.27439941 7.3394043 8.88913086 8.34970703 8.4921875 9.390625 C8.06292969 10.49277344 7.63367188 11.59492188 7.19140625 12.73046875 C6.75699219 13.89191406 6.32257813 15.05335938 5.875 16.25 C5.21177734 17.96896484 5.21177734 17.96896484 4.53515625 19.72265625 C3.71022034 21.86350201 2.89167484 24.00682872 2.08154297 26.15332031 C1.08311021 28.78124943 0.05237076 31.39327583 -1 34 C-1.66 33.67 -2.32 33.34 -3 33 C-3 32.34 -3 31.68 -3 31 C-3.66 31 -4.32 31 -5 31 C-5 30.34 -5 29.68 -5 29 C-4.34 29 -3.68 29 -3 29 C-2.82984375 28.32195312 -2.6596875 27.64390625 -2.484375 26.9453125 C-0.9798292 21.16721639 0.79680752 15.68735595 3.1328125 10.19140625 C3.94471822 8.13969856 4.51989929 6.15065521 5 4 C3.35 3.67 1.7 3.34 0 3 C0 2.01 0 1.02 0 0 Z " fill="#C8A563" transform="translate(307,191)"/>
<path d="M0 0 C0.33 0 0.66 0 1 0 C1 46.86 1 93.72 1 142 C0.67 142 0.34 142 0 142 C-0.33 98.11 -0.66 54.22 -1 9 C-1.66 10.65 -2.32 12.3 -3 14 C-3.66 14 -4.32 14 -5 14 C-3.45730076 9.27934033 -1.92205381 4.58335908 0 0 Z " fill="#4E4325" transform="translate(390,250)"/>
<path d="M0 0 C0.78375 0.639375 1.5675 1.27875 2.375 1.9375 C6.33715439 5.05062131 8.75464084 5.32453549 13.6796875 5.30078125 C17.11698606 4.85520551 19.29019093 3.06461643 22 1 C22.99 1 23.98 1 25 1 C23.64844718 5.42326378 21.80109562 7.40412982 18 10 C12.52783055 11.82405648 5.22591076 12.31916708 -0.1875 10.10546875 C-1.8125 9 -1.8125 9 -4 7 C-3.67 5.68 -3.34 4.36 -3 3 C-2.34 3 -1.68 3 -1 3 C-0.67 2.01 -0.34 1.02 0 0 Z " fill="#D7B870" transform="translate(139,221)"/>
<path d="M0 0 C1.0625 1.765625 1.0625 1.765625 2 4 C0.84523083 8.33038439 -0.74118171 12.35187287 -2.40234375 16.51171875 C-6.33889153 26.51679378 -8.92511592 36.4547068 -11 47 C-11.99 47 -12.98 47 -14 47 C-13.92493518 30.63586882 -6.87455675 14.5626705 0 0 Z " fill="#C39D58" transform="translate(56,122)"/>
<path d="M0 0 C0.73195587 -0.00014603 1.46391174 -0.00029205 2.2180481 -0.0004425 C4.63668789 0.00025399 7.05525061 0.00803411 9.47387695 0.01586914 C11.15110736 0.01773425 12.82833831 0.01915772 14.50556946 0.02015686 C18.91966252 0.02397469 23.33372267 0.03379873 27.74780273 0.04486084 C32.25219274 0.05509072 36.75658806 0.05965786 41.26098633 0.06469727 C50.09889141 0.07542164 58.93677207 0.09248928 67.7746582 0.11352539 C67.7746582 0.44352539 67.7746582 0.77352539 67.7746582 1.11352539 C60.72729308 1.28184246 53.67977278 1.44171587 46.63208008 1.59570312 C44.23424943 1.64909283 41.83646112 1.70441981 39.4387207 1.76171875 C35.99350104 1.84371384 32.54818955 1.91875504 29.1027832 1.99243164 C27.49321747 2.03298424 27.49321747 2.03298424 25.85113525 2.07435608 C24.85039978 2.09445236 23.84966431 2.11454865 22.81860352 2.13525391 C21.93924133 2.15523941 21.05987915 2.17522491 20.15386963 2.19581604 C17.87334379 2.11693866 15.95603451 1.75915446 13.7746582 1.11352539 C13.7746582 1.77352539 13.7746582 2.43352539 13.7746582 3.11352539 C11.48395705 4.25887597 10.17883228 4.2424971 7.6340332 4.24633789 C6.81032227 4.24762695 5.98661133 4.24891602 5.13793945 4.25024414 C4.27555664 4.24637695 3.41317383 4.24250977 2.5246582 4.23852539 C1.67774414 4.24239258 0.83083008 4.24625977 -0.04174805 4.25024414 C-4.54975378 4.24323325 -8.78921447 4.02684572 -13.2253418 3.11352539 C-8.7345652 0.11967433 -5.21560795 -0.02715571 0 0 Z " fill="#EAC87F" transform="translate(188.225341796875,1.886474609375)"/>
<path d="M0 0 C0.66 0 1.32 0 2 0 C2.33 2.31 2.66 4.62 3 7 C3.7425 6.21625 4.485 5.4325 5.25 4.625 C8.40909687 1.60949844 10.22757405 0.1729196 14.5625 -0.25 C17 0 17 0 20 2 C20.3125 5 20.3125 5 20 8 C18 10 18 10 15.5 10.3125 C14.2625 10.1578125 14.2625 10.1578125 13 10 C12.34 9.01 11.68 8.02 11 7 C8.03824877 7.61277612 6.61941217 8.25372522 4 10 C3.01 9.67 2.02 9.34 1 9 C0.67 6.03 0.34 3.06 0 0 Z " fill="#C9A763" transform="translate(106,190)"/>
<path d="M0 0 C5.22858627 -0.44770769 8.67590302 0.97838087 13.125 3.5 C13.7737207 3.85658691 14.42244141 4.21317383 15.09082031 4.58056641 C21.29330031 8.04612241 27.16957492 11.94156685 33 16 C33.99 16.66 34.98 17.32 36 18 C36 18.66 36 19.32 36 20 C30.31453813 18.67779956 26.20276385 16.47526079 21.375 13.25 C14.49114193 8.78518783 7.5749978 5.19083811 0 2 C0 1.34 0 0.68 0 0 Z " fill="#CEAE6D" transform="translate(253,19)"/>
<path d="M0 0 C4.28682574 0.5722377 7.82796313 1.60464979 11.7734375 3.36328125 C12.8459375 3.83830078 13.9184375 4.31332031 15.0234375 4.80273438 C16.12945312 5.30095703 17.23546875 5.79917969 18.375 6.3125 C20.02242188 7.04243164 20.02242188 7.04243164 21.703125 7.78710938 C27.54382257 10.38881099 33.30905718 13.08529571 39 16 C38.34 17.65 37.68 19.3 37 21 C34.12434044 19.60942855 31.4074981 18.07041142 28.69140625 16.390625 C19.338529 10.65892431 10.14956431 5.22281143 0 1 C0 0.67 0 0.34 0 0 Z " fill="#1D1408" transform="translate(252,16)"/>
<path d="M0 0 C6.4188547 1.73624758 12.13784836 3.85180745 18 7 C17.67 8.32 17.34 9.64 17 11 C11.90167878 11.37649141 8.17374746 10.10818776 3.625 8 C2.98433594 7.71382812 2.34367187 7.42765625 1.68359375 7.1328125 C0.11792837 6.4317683 -1.44169156 5.71724882 -3 5 C-2.01 3.35 -1.02 1.7 0 0 Z " fill="#D4B06B" transform="translate(261,13)"/>
<path d="M0 0 C0 3.57575896 -1.08840607 5.05295935 -3 8 C-2.34 8.33 -1.68 8.66 -1 9 C-8.05785621 13.40335277 -15.27786993 17.85983002 -23 21 C-23.66 20.67 -24.32 20.34 -25 20 C-24.24976563 19.45472656 -23.49953125 18.90945313 -22.7265625 18.34765625 C-16.53873475 13.78861439 -10.6932243 9.09369159 -5.05859375 3.84765625 C-3 2 -3 2 0 0 Z " fill="#1A150B" transform="translate(307,324)"/>
<path d="M0 0 C-1.74819139 6.11866987 -4.18027712 11.68941333 -7 17.375 C-7.34417969 18.07689453 -7.68835938 18.77878906 -8.04296875 19.50195312 C-9.71463329 22.81646041 -11.2869412 25.47620203 -14 28 C-14.99 27.34 -15.98 26.68 -17 26 C-16.48050781 25.11699219 -15.96101563 24.23398437 -15.42578125 23.32421875 C-11.55862885 16.68805155 -7.97362578 10.11515266 -5.0078125 3.01171875 C-3.71458734 0.43028092 -2.86849431 0 0 0 Z " fill="#CDB26F" transform="translate(344,267)"/>
<path d="M0 0 C1.91796875 1.1015625 1.91796875 1.1015625 4.73046875 3.1015625 C4.73046875 4.0915625 4.73046875 5.0815625 4.73046875 6.1015625 C4.07046875 6.1015625 3.41046875 6.1015625 2.73046875 6.1015625 C2.40046875 7.0915625 2.07046875 8.0815625 1.73046875 9.1015625 C1.13234375 8.2765625 0.53421875 7.4515625 -0.08203125 6.6015625 C-2.07843611 4.54778968 -3.00815205 4.12398853 -5.91015625 3.875 C-7.8251891 3.94156531 -9.73929376 4.05457953 -11.6484375 4.21875 C-14.78974507 4.07830406 -15.97917579 3.18174417 -18.26953125 1.1015625 C-12.50859169 -1.49813947 -6.01344283 -2.38053675 0 0 Z " fill="#DBC98C" transform="translate(240.26953125,190.8984375)"/>
<path d="M0 0 C0.99 0.33 1.98 0.66 3 1 C-0.97163382 5.38249249 -5.52777924 8.64289023 -10.33984375 12.0625 C-12.49467063 13.63194806 -14.50401628 15.23913216 -16.5 17 C-19 19 -19 19 -22 19 C-18.26425719 10.49286291 -7.90481184 4.21589965 0 0 Z " fill="#DCC580" transform="translate(117,54)"/>
<path d="M0 0 C4.85634901 -0.0496911 9.71254776 -0.08585664 14.5690918 -0.10986328 C16.21885763 -0.11987851 17.86860591 -0.1334946 19.51831055 -0.15087891 C21.89897005 -0.17532542 24.27939347 -0.18652803 26.66015625 -0.1953125 C27.38960953 -0.20563507 28.11906281 -0.21595764 28.87062073 -0.22659302 C33.61319411 -0.22761619 37.49416922 0.50581171 42 2 C42 2.99 42 3.98 42 5 C41.26064209 4.91435791 40.52128418 4.82871582 39.75952148 4.74047852 C19.91824479 2.43110681 19.91824479 2.43110681 0 1 C0 0.67 0 0.34 0 0 Z " fill="#E7CB88" transform="translate(193,27)"/>
<path d="M0 0 C0.33 0 0.66 0 1 0 C0.99476318 0.77601563 0.98952637 1.55203125 0.98413086 2.3515625 C0.96321736 5.90103328 0.95029432 9.45049104 0.9375 13 C0.92912109 14.22074219 0.92074219 15.44148437 0.91210938 16.69921875 C0.89535156 22.89960932 1.02727854 28.8726207 2 35 C6.95 34.505 6.95 34.505 12 34 C12 34.66 12 35.32 12 36 C5.73 36 -0.54 36 -7 36 C-7 35.34 -7 34.68 -7 34 C-5.35 33.34 -3.7 32.68 -2 32 C-1.34 21.44 -0.68 10.88 0 0 Z " fill="#EBD48F" transform="translate(265,195)"/>
<path d="M0 0 C0.99 0.99 1.98 1.98 3 3 C2.23816406 4.23363281 2.23816406 4.23363281 1.4609375 5.4921875 C0.77257812 6.60851562 0.08421875 7.72484375 -0.625 8.875 C-0.98601807 9.45983154 -1.34703613 10.04466309 -1.71899414 10.6472168 C-4.49515218 15.15395093 -7.2034948 19.69754286 -9.87109375 24.26953125 C-10.24363281 24.84058594 -10.61617187 25.41164063 -11 26 C-11.33 26 -11.66 26 -12 26 C-12.48420496 20.70602576 -10.95678013 17.39611809 -8.25 13 C-7.90195312 12.40960938 -7.55390625 11.81921875 -7.1953125 11.2109375 C-4.92168855 7.38788094 -2.49282496 3.68309273 0 0 Z " fill="#C6A563" transform="translate(69,100)"/>
<path d="M0 0 C6.72579241 0.23583947 9.99631092 2.87250727 14.875 7.3125 C15.55046875 7.89451172 16.2259375 8.47652344 16.921875 9.07617188 C22.2972694 13.84170727 22.2972694 13.84170727 23 18 C18.64295681 17.54245847 16.17796548 14.65461931 13.1875 11.75 C8.99005283 7.77178419 4.78676328 4.26370224 0 1 C0 0.67 0 0.34 0 0 Z " fill="#C5A562" transform="translate(285,38)"/>
<path d="M0 0 C-0.99 0.66 -1.98 1.32 -3 2 C-2.01 2.66 -1.02 3.32 0 4 C-8.58 4 -17.16 4 -26 4 C-26.33 3.34 -26.66 2.68 -27 2 C-18.08489362 -0.641513 -9.20604186 -0.17875809 0 0 Z " fill="#F4D88E" transform="translate(181,2)"/>
<path d="M0 0 C0.33 0.99 0.66 1.98 1 3 C-0.1875 5.1640625 -0.1875 5.1640625 -2 7.625 C-2.64066406 8.5015625 -3.28132813 9.378125 -3.94140625 10.28125 C-6.92258399 14.2184411 -9.9274309 18.13360606 -13 22 C-14.32 21.34 -15.64 20.68 -17 20 C-16.5875 19.55011719 -16.175 19.10023438 -15.75 18.63671875 C-11.35340247 13.7396157 -7.47332877 8.61318274 -3.69921875 3.22265625 C-2 1 -2 1 0 0 Z " fill="#CDB87C" transform="translate(329,293)"/>
<path d="M0 0 C0.99 0.33 1.98 0.66 3 1 C1.11614319 4.98934383 -1.09715469 7.25836255 -5.015625 9.3515625 C-8.53151332 10.50045514 -11.42827521 9.75194206 -15 9 C-14.67 7.68 -14.34 6.36 -14 5 C-12.98679687 4.83564453 -12.98679687 4.83564453 -11.953125 4.66796875 C-10.61507813 4.43013672 -10.61507813 4.43013672 -9.25 4.1875 C-8.36828125 4.03667969 -7.4865625 3.88585937 -6.578125 3.73046875 C-3.92268131 3.1488363 -3.92268131 3.1488363 -1.859375 1.36328125 C-1.24578125 0.91339844 -0.6321875 0.46351563 0 0 Z " fill="#CCA562" transform="translate(357,222)"/>
<path d="M0 0 C0.99 0.33 1.98 0.66 3 1 C3.12246094 1.71542969 3.24492187 2.43085938 3.37109375 3.16796875 C4.01135375 6.05112713 4.93551556 8.58592473 6.0625 11.3125 C6.42472656 12.19550781 6.78695313 13.07851563 7.16015625 13.98828125 C7.43730469 14.65214844 7.71445313 15.31601562 8 16 C8 13.03 8 10.06 8 7 C12.22222222 13.33333333 12.22222222 13.33333333 11.625 17.8125 C11.41875 18.534375 11.2125 19.25625 11 20 C10.01 20 9.02 20 8 20 C7.67 20.66 7.34 21.32 7 22 C5.02 16.39 3.04 10.78 1 5 C0.34 5.66 -0.32 6.32 -1 7 C-1.04254356 5.00045254 -1.04080783 2.99958364 -1 1 C-0.67 0.67 -0.34 0.34 0 0 Z " fill="#B58D49" transform="translate(6,245)"/>
<path d="M0 0 C1.35088068 2.19887876 2.09402491 3.41062435 1.6796875 6.0078125 C1.41414063 6.70648438 1.14859375 7.40515625 0.875 8.125 C0.58753906 8.89972656 0.30007812 9.67445313 0.00390625 10.47265625 C-0.32738281 11.30667969 -0.65867187 12.14070312 -1 13 C-1.36222656 13.92683594 -1.72445312 14.85367188 -2.09765625 15.80859375 C-3.04905601 18.21266841 -4.01659325 20.60887394 -5 23 C-5.99 22.34 -6.98 21.68 -8 21 C-6.033631 13.63011293 -3.30417422 6.86954798 0 0 Z " fill="#B19053" transform="translate(56,122)"/>
<path d="M0 0 C0.33 0 0.66 0 1 0 C1 15.51 1 31.02 1 47 C0.67 47 0.34 47 0 47 C-0.33 34.46 -0.66 21.92 -1 9 C-1.66 10.65 -2.32 12.3 -3 14 C-3.66 14 -4.32 14 -5 14 C-3.45730076 9.27934033 -1.92205381 4.58335908 0 0 Z " fill="#453819" transform="translate(390,250)"/>
<path d="M0 0 C10.5309417 -1.0735426 10.5309417 -1.0735426 14.1328125 1.55859375 C15.59155055 3.30978411 16.85490268 5.03123619 18 7 C15.69 7.66 13.38 8.32 11 9 C10.731875 8.38125 10.46375 7.7625 10.1875 7.125 C9.04443152 4.7004767 9.04443152 4.7004767 6 3 C4.0103005 2.60986284 2.00980131 2.26797351 0 2 C0 1.34 0 0.68 0 0 Z " fill="#DEC179" transform="translate(144,191)"/>
<path d="M0 0 C5.48168658 6.70147206 4.12380621 15.74625261 4 24 C3.01 24 2.02 24 1 24 C-0.03387512 15.9874678 -0.10466648 8.07094823 0 0 Z " fill="#BC9A58" transform="translate(359,151)"/>
<path d="M0 0 C5.09145235 1.87992087 9.72322392 4.48239564 14.47265625 7.078125 C17.92021536 8.94468226 21.31234851 10.6384056 25 12 C21.47776479 13.1740784 20.80702916 12.7977988 17.47265625 11.453125 C16.59802734 11.1025 15.72339844 10.751875 14.82226562 10.390625 C13.91154297 10.01421875 13.00082031 9.6378125 12.0625 9.25 C11.15564453 8.8890625 10.24878906 8.528125 9.31445312 8.15625 C5.11913961 6.45219329 1.55473143 4.85028615 -2 2 C-1.34 2 -0.68 2 0 2 C0 1.34 0 0.68 0 0 Z " fill="#34210C" transform="translate(117,369)"/>
<path d="M0 0 C1.98 0 3.96 0 6 0 C3.74411827 2.5174071 1.62163734 3.82244119 -1.45703125 5.19140625 C-2.32263672 5.57876953 -3.18824219 5.96613281 -4.08007812 6.36523438 C-4.98177734 6.76033203 -5.88347656 7.15542969 -6.8125 7.5625 C-7.70259766 7.96146484 -8.59269531 8.36042969 -9.50976562 8.77148438 C-22.73073379 14.64202547 -22.73073379 14.64202547 -27 13 C-26.20078125 12.69707031 -25.4015625 12.39414062 -24.578125 12.08203125 C-17.78026312 9.48895013 -11.04630968 6.79476907 -4.36328125 3.91796875 C-2 3 -2 3 0 3 C0 2.01 0 1.02 0 0 Z " fill="#E6D292" transform="translate(299,350)"/>
<path d="M0 0 C0.95003906 0.16371094 1.90007812 0.32742188 2.87890625 0.49609375 C7.56533049 1.16558293 12.21268306 1.10920922 16.9375 1.0625 C17.81212891 1.05798828 18.68675781 1.05347656 19.58789062 1.04882812 C21.72529047 1.03714834 23.86265463 1.01921689 26 1 C26.33 1.66 26.66 2.32 27 3 C23.37 3.33 19.74 3.66 16 4 C16 4.33 16 4.66 16 5 C10.84828377 5.09038099 6.08086796 4.84681133 1 4 C0.67 2.68 0.34 1.36 0 0 Z " fill="#A7874F" transform="translate(161,368)"/>
<path d="M0 0 C0.125 2.875 0.125 2.875 0 6 C-2 8 -2 8 -4.625 8.125 C-5.40875 8.08375 -6.1925 8.0425 -7 8 C-7.88492145 5.52221994 -8.11637742 4.33943414 -7.25 1.8125 C-5.09546211 -1.31157994 -3.43399009 -1.14466336 0 0 Z " fill="#CAA860" transform="translate(126,192)"/>
<path d="M0 0 C6.11893423 0.56656798 11.32363807 3.10651129 16.875 5.5625 C17.84953125 5.98724609 18.8240625 6.41199219 19.828125 6.84960938 C22.22144765 7.89375504 24.61188014 8.94402214 27 10 C26.01 11.485 26.01 11.485 25 13 C20.49953019 11.30021395 16.2358729 9.20971653 11.9375 7.0625 C11.23044922 6.71509766 10.52339844 6.36769531 9.79492188 6.00976562 C6.27974537 4.25712832 3.04316133 2.52147653 0 0 Z " fill="#3E2C12" transform="translate(252,16)"/>
<path d="M0 0 C3.3 0 6.6 0 10 0 C10 0.99 10 1.98 10 3 C8.35 3.66 6.7 4.32 5 5 C4.67 11.6 4.34 18.2 4 25 C3.67 25 3.34 25 3 25 C2.80261432 21.75052139 2.6188246 18.50041127 2.4375 15.25 C2.38142578 14.32960937 2.32535156 13.40921875 2.26757812 12.4609375 C2.21923828 11.57148438 2.17089844 10.68203125 2.12109375 9.765625 C2.0739624 8.94868164 2.02683105 8.13173828 1.97827148 7.29003906 C1.99979905 5.02117925 2.35387865 3.16679079 3 1 C2.01 0.67 1.02 0.34 0 0 Z " fill="#CCA361" transform="translate(43,175)"/>
<path d="M0 0 C8.16240568 -0.33853295 15.95072024 0.70098079 24 2 C22.02 2.99 22.02 2.99 20 4 C20.33 4.66 20.66 5.32 21 6 C17.87245024 5.387332 14.74853633 4.75778538 11.625 4.125 C10.29082031 3.86396484 10.29082031 3.86396484 8.9296875 3.59765625 C8.07890625 3.42363281 7.228125 3.24960937 6.3515625 3.0703125 C5.56604004 2.91320801 4.78051758 2.75610352 3.97119141 2.59423828 C2 2 2 2 0 0 Z " fill="#4C3C1C" transform="translate(208,29)"/>
<path d="M0 0 C0.680625 0.804375 1.36125 1.60875 2.0625 2.4375 C5.48477302 5.42288711 7.5428126 5.73781251 12 6 C12 6.33 12 6.66 12 7 C10.02 7 8.04 7 6 7 C6 7.66 6 8.32 6 9 C-0.4 8.50769231 -0.4 8.50769231 -3.4375 5.9375 C-3.953125 5.298125 -4.46875 4.65875 -5 4 C-4.34 4 -3.68 4 -3 4 C-3 3.34 -3 2.68 -3 2 C-2.34 2 -1.68 2 -1 2 C-0.67 1.34 -0.34 0.68 0 0 Z " fill="#DFCD8B" transform="translate(223,223)"/>
<path d="M0 0 C3.78806451 0.60636284 6.82895704 1.71161456 10.25 3.4375 C11.12140625 3.86933594 11.9928125 4.30117188 12.890625 4.74609375 C15 6 15 6 16 8 C9.79011871 7.55643705 5.39459439 6.08467498 0 3 C0 2.01 0 1.02 0 0 Z " fill="#C39D5B" transform="translate(129,373)"/>
<path d="M0 0 C3.3 0 6.6 0 10 0 C10 0.99 10 1.98 10 3 C7.11584117 4.44207941 4.58278472 4.09394887 1.375 4.0625 C0.18648437 4.05347656 -1.00203125 4.04445312 -2.2265625 4.03515625 C-3.14179688 4.02355469 -4.05703125 4.01195312 -5 4 C-5 3.34 -5 2.68 -5 2 C-3.35 2 -1.7 2 0 2 C0 1.34 0 0.68 0 0 Z " fill="#DEBE79" transform="translate(146,228)"/>
<path d="M0 0 C1.32 0.99 2.64 1.98 4 3 C3.125 9.75 3.125 9.75 2 12 C0.68 12 -0.64 12 -2 12 C-2.33 10.35 -2.66 8.7 -3 7 C-2.34 6.67 -1.68 6.34 -1 6 C-0.34227572 2.97065509 -0.34227572 2.97065509 0 0 Z " fill="#EDD893" transform="translate(189,220)"/>
<path d="M0 0 C1.67110042 2.96178773 2.32682752 5.37071192 2.625 8.75 C2.69976562 9.54921875 2.77453125 10.3484375 2.8515625 11.171875 C2.90054687 11.77515625 2.94953125 12.3784375 3 13 C5.31 13 7.62 13 10 13 C10.33 12.01 10.66 11.02 11 10 C11.33 11.65 11.66 13.3 12 15 C8.7 15 5.4 15 2 15 C-0.14285714 4.95535714 -0.14285714 4.95535714 0 0 Z " fill="#BD9E61" transform="translate(339,160)"/>
<path d="M0 0 C0 0.33 0 0.66 0 1 C-2.64 1 -5.28 1 -8 1 C-8 1.66 -8 2.32 -8 3 C-6.02 3 -4.04 3 -2 3 C-2 3.33 -2 3.66 -2 4 C-3.60875 4.12375 -3.60875 4.12375 -5.25 4.25 C-9.2738451 5.05476902 -10.48169253 5.87729874 -13 9 C-13 7.68 -13 6.36 -13 5 C-13.99 4.67 -14.98 4.34 -16 4 C-10.45834744 0.22695996 -6.65545792 -0.54330269 0 0 Z " fill="#C3A86D" transform="translate(152,190)"/>
<path d="M0 0 C7.26 0 14.52 0 22 0 C22 0.99 22 1.98 22 3 C21.01 2.67 20.02 2.34 19 2 C16.94106379 1.77674186 14.87766347 1.59294241 12.8125 1.4375 C11.72582031 1.35371094 10.63914062 1.26992187 9.51953125 1.18359375 C8.68808594 1.12300781 7.85664062 1.06242188 7 1 C6.67 2.32 6.34 3.64 6 5 C4.02 4.34 2.04 3.68 0 3 C0 2.01 0 1.02 0 0 Z " fill="#BC9A5E" transform="translate(67,175)"/>
<path d="M0 0 C0.91007812 0.00902344 1.82015625 0.01804688 2.7578125 0.02734375 C3.80582031 0.04474609 3.80582031 0.04474609 4.875 0.0625 C4.545 0.7225 4.215 1.3825 3.875 2.0625 C1.54828146 2.75189809 -0.78567594 3.41716922 -3.125 4.0625 C-4.115 4.7225 -5.105 5.3825 -6.125 6.0625 C-6.125 5.0725 -6.125 4.0825 -6.125 3.0625 C-7.775 4.3825 -9.425 5.7025 -11.125 7.0625 C-11.785 6.7325 -12.445 6.4025 -13.125 6.0625 C-5.88536269 -0.07545337 -5.88536269 -0.07545337 0 0 Z " fill="#CAA866" transform="translate(342.125,190.9375)"/>
<path d="M0 0 C0.66 0.33 1.32 0.66 2 1 C-4.435 5.95 -4.435 5.95 -11 11 C-11.33 10.01 -11.66 9.02 -12 8 C-12.66 7.67 -13.32 7.34 -14 7 C-11.71296692 5.80274117 -9.42115138 4.61702982 -7.125 3.4375 C-6.14853516 2.92413086 -6.14853516 2.92413086 -5.15234375 2.40039062 C-3.46470143 1.53917109 -1.73420407 0.76313297 0 0 Z " fill="#372D15" transform="translate(114,54)"/>
<path d="M0 0 C1.6254308 0.14095064 3.25034051 0.28792087 4.875 0.4375 C5.77992188 0.51871094 6.68484375 0.59992187 7.6171875 0.68359375 C10 1 10 1 12 2 C12 2.99 12 3.98 12 5 C6.39 4.34 0.78 3.68 -5 3 C-5 2.67 -5 2.34 -5 2 C-3.35 1.67 -1.7 1.34 0 1 C0 0.67 0 0.34 0 0 Z " fill="#D2B576" transform="translate(223,27)"/>
<path d="M0 0 C1.93884889 0.28256092 3.87605961 0.5763793 5.8125 0.875 C6.89144531 1.03742188 7.97039062 1.19984375 9.08203125 1.3671875 C12 2 12 2 15 4 C12.58303128 4.05411124 10.16728213 4.09372278 7.75 4.125 C7.06808594 4.14175781 6.38617188 4.15851563 5.68359375 4.17578125 C1.9391765 4.21213482 -0.82352727 4.07944349 -4 2 C-2.68 2 -1.36 2 0 2 C0 1.34 0 0.68 0 0 Z " fill="#2D1F0C" transform="translate(168,366)"/>
<path d="M0 0 C3.26954202 0.56371414 4.82575883 1.49962266 7 4 C6 7 6 7 3 9 C1.5 7.875 1.5 7.875 0 6 C-0.1875 2.8125 -0.1875 2.8125 0 0 Z " fill="#C69B51" transform="translate(56,330)"/>
<path d="M0 0 C0.66 0 1.32 0 2 0 C2.86883706 1.57533086 3.71959068 3.16064509 4.5625 4.75 C5.03816406 5.63171875 5.51382813 6.5134375 6.00390625 7.421875 C7.07998186 10.20701188 7.06528748 11.26980214 6 14 C6 13.34 6 12.68 6 12 C5.01 11.67 4.02 11.34 3 11 C0.68059158 7.22022332 -0.39168975 4.43915044 0 0 Z " fill="#BD9550" transform="translate(51,289)"/>
<path d="M0 0 C1.12894876 0.93274109 2.25300876 1.87140122 3.375 2.8125 C4.00148438 3.33457031 4.62796875 3.85664062 5.2734375 4.39453125 C7 6 7 6 9 9 C7.234375 9.71484375 7.234375 9.71484375 5 10 C3.078125 8.56640625 3.078125 8.56640625 1.25 6.5625 C0.63640625 5.90378906 0.0228125 5.24507812 -0.609375 4.56640625 C-1.06828125 4.04949219 -1.5271875 3.53257813 -2 3 C-1.34 2.67 -0.68 2.34 0 2 C0 1.34 0 0.68 0 0 Z " fill="#B69556" transform="translate(308,54)"/>
<path d="M0 0 C-3.96 2.97 -7.92 5.94 -12 9 C-12.66 8.67 -13.32 8.34 -14 8 C-12.80704867 4.42114601 -11.75532938 3.81865091 -8.6875 1.75 C-7.51767578 0.93789063 -7.51767578 0.93789063 -6.32421875 0.109375 C-4 -1 -4 -1 0 0 Z " fill="#E1CB8A" transform="translate(319,327)"/>
<path d="M0 0 C0.33 0 0.66 0 1 0 C1.33 7.92 1.66 15.84 2 24 C3.65 24.33 5.3 24.66 7 25 C7 25.33 7 25.66 7 26 C4.03 26.33 1.06 26.66 -2 27 C-1.67 26.34 -1.34 25.68 -1 25 C-0.84655791 23.11527141 -0.75040429 21.22572126 -0.68359375 19.3359375 C-0.62075195 17.65371094 -0.62075195 17.65371094 -0.55664062 15.9375 C-0.51732422 14.761875 -0.47800781 13.58625 -0.4375 12.375 C-0.39431641 11.19164062 -0.35113281 10.00828125 -0.30664062 8.7890625 C-0.20032574 5.85949672 -0.09829358 2.92984412 0 0 Z " fill="#A78954" transform="translate(108,203)"/>
<path d="M0 0 C0.99 0.99 1.98 1.98 3 3 C1.35 5.64 -0.3 8.28 -2 11 C-2.66 10.67 -3.32 10.34 -4 10 C-4.33 10.66 -4.66 11.32 -5 12 C-5.66 11.67 -6.32 11.34 -7 11 C-4.69 7.37 -2.38 3.74 0 0 Z " fill="#BB9E5E" transform="translate(69,100)"/>
<path d="M0 0 C0.66 0.33 1.32 0.66 2 1 C1.34 1.66 0.68 2.32 0 3 C0.33 3.66 0.66 4.32 1 5 C-0.95330868 6.03041513 -2.91281528 7.0490893 -4.875 8.0625 C-5.96554687 8.63097656 -7.05609375 9.19945312 -8.1796875 9.78515625 C-9.11039062 10.18605469 -10.04109375 10.58695312 -11 11 C-11.66 10.67 -12.32 10.34 -13 10 C-11.71802734 9.04287109 -11.71802734 9.04287109 -10.41015625 8.06640625 C-9.29423934 7.23181293 -8.17835564 6.39717522 -7.0625 5.5625 C-6.21655273 4.93118164 -6.21655273 4.93118164 -5.35351562 4.28710938 C-2.57122778 2.26901433 -2.57122778 2.26901433 0 0 Z " fill="#322913" transform="translate(295,334)"/>
<path d="M0 0 C3.465 1.485 3.465 1.485 7 3 C7 3.66 7 4.32 7 5 C-0.26 5 -7.52 5 -15 5 C-15 4.34 -15 3.68 -15 3 C-9.72 3 -4.44 3 1 3 C0.67 2.01 0.34 1.02 0 0 Z " fill="#BE9958" transform="translate(47,226)"/>
<path d="M0 0 C-2.57784846 2.64752004 -4.91648098 4.94432065 -8 7 C-8.99 7 -9.98 7 -11 7 C-11 6.01 -11 5.02 -11 4 C-9.35546875 2.578125 -9.35546875 2.578125 -7.1875 1.25 C-6.47980469 0.80140625 -5.77210937 0.3528125 -5.04296875 -0.109375 C-3 -1 -3 -1 0 0 Z " fill="#E2CD88" transform="translate(120,55)"/>
<path d="M0 0 C0.66 0.33 1.32 0.66 2 1 C4.0374763 1.22858114 6.08040303 1.41024278 8.125 1.5625 C9.76855469 1.68818359 9.76855469 1.68818359 11.4453125 1.81640625 C12.28835937 1.87699219 13.13140625 1.93757812 14 2 C14 1.34 14 0.68 14 0 C16.475 0.495 16.475 0.495 19 1 C19 1.66 19 2.32 19 3 C11.74 3 4.48 3 -3 3 C-3 2.34 -3 1.68 -3 1 C-2.01 0.67 -1.02 0.34 0 0 Z " fill="#C5A05F" transform="translate(70,228)"/>
<path d="M0 0 C0.66 0.33 1.32 0.66 2 1 C1.51421457 4.12290635 1.0013988 6.99580359 0 10 C-0.99 10 -1.98 10 -3 10 C-3.36923077 4.58461538 -3.36923077 4.58461538 -1.5 1.625 C-1.005 1.08875 -0.51 0.5525 0 0 Z " fill="#E5D593" transform="translate(198,205)"/>
<path d="M0 0 C-0.99 0.8971875 -0.99 0.8971875 -2 1.8125 C-4.3373846 3.87501834 -4.3373846 3.87501834 -4 7 C-4.598125 6.649375 -5.19625 6.29875 -5.8125 5.9375 C-8.10813214 4.66695302 -8.10813214 4.66695302 -11 6 C-10 3 -10 3 -7.75 1.3125 C-4.8635748 -0.06511203 -3.14826764 -0.26985151 0 0 Z " fill="#E2CF8D" transform="translate(285,341)"/>
<path d="M0 0 C0.99 0 1.98 0 3 0 C2.40546697 9.59453303 2.40546697 9.59453303 -1 13 C-0.67 10.36 -0.34 7.72 0 5 C-0.66 4.67 -1.32 4.34 -2 4 C-1.34 2.68 -0.68 1.36 0 0 Z " fill="#EACA7D" transform="translate(136,195)"/>
<path d="M0 0 C1.87379605 0.07033769 3.75001102 0.0843022 5.625 0.0625 C6.62789063 0.05347656 7.63078125 0.04445312 8.6640625 0.03515625 C9.82035156 0.01775391 9.82035156 0.01775391 11 0 C11 0.66 11 1.32 11 2 C4.73 2 -1.54 2 -8 2 C-8 1.34 -8 0.68 -8 0 C-2.25 -1.125 -2.25 -1.125 0 0 Z " fill="#EEDA9A" transform="translate(266,229)"/>
<path d="M0 0 C-0.66 0.66 -1.32 1.32 -2 2 C-2.66 1.67 -3.32 1.34 -4 1 C-4 1.99 -4 2.98 -4 4 C-5.98 4 -7.96 4 -10 4 C-10 2.68 -10 1.36 -10 0 C-6.33694766 -0.74926071 -3.57644848 -1.2380014 0 0 Z " fill="#C1A46A" transform="translate(267,171)"/>
<path d="M0 0 C0.99 0 1.98 0 3 0 C2.91253716 1.43861294 2.80434652 2.87597508 2.6875 4.3125 C2.62949219 5.11300781 2.57148438 5.91351563 2.51171875 6.73828125 C1.91793306 9.36272334 1.04219706 10.30820672 -1 12 C-1.14285714 3.42857143 -1.14285714 3.42857143 0 0 Z " fill="#C8AA6B" transform="translate(350,238)"/>
<path d="M0 0 C1.32 0.66 2.64 1.32 4 2 C3.01 4.64 2.02 7.28 1 10 C0.34 9.67 -0.32 9.34 -1 9 C-1 8.34 -1 7.68 -1 7 C-1.66 7 -2.32 7 -3 7 C-3 6.34 -3 5.68 -3 5 C-2.34 5 -1.68 5 -1 5 C-0.67 3.35 -0.34 1.7 0 0 Z " fill="#C4A362" transform="translate(305,215)"/>
<path d="M0 0 C0.66 0 1.32 0 2 0 C2.33 2.31 2.66 4.62 3 7 C4.32 5.68 5.64 4.36 7 3 C7.33 4.32 7.66 5.64 8 7 C6.1875 8.5625 6.1875 8.5625 4 10 C3.01 9.67 2.02 9.34 1 9 C0.67 6.03 0.34 3.06 0 0 Z " fill="#B69657" transform="translate(106,190)"/>
<path d="M0 0 C2.88437779 1.29299694 4.87219421 2.65941363 7 5 C6.01 5.33 5.02 5.66 4 6 C3.67 6.99 3.34 7.98 3 9 C1.68 7.35 0.36 5.7 -1 4 C-0.34 4 0.32 4 1 4 C0.67 2.68 0.34 1.36 0 0 Z " fill="#DAC481" transform="translate(239,191)"/>
<path d="M0 0 C1.9375 0.3125 1.9375 0.3125 4 1 C4.33 1.99 4.66 2.98 5 4 C4.01 5.485 4.01 5.485 3 7 C1.68 6.34 0.36 5.68 -1 5 C-0.67 3.35 -0.34 1.7 0 0 Z " fill="#CFA75D" transform="translate(341,67)"/>
<path d="M0 0 C-0.99 0.66 -1.98 1.32 -3 2 C-2.01 2.66 -1.02 3.32 0 4 C-3.63 4 -7.26 4 -11 4 C-11 3.01 -11 2.02 -11 1 C-7.27569643 0.30710631 -3.78916254 -0.11144596 0 0 Z " fill="#F0D188" transform="translate(181,2)"/>
<path d="M0 0 C0.99 0 1.98 0 3 0 C3.96891192 5.37305699 3.96891192 5.37305699 4 8 C2.5625 10 2.5625 10 1 11 C-0.28317892 7.15046324 -0.06643637 4.05261865 0 0 Z " fill="#A57F42" transform="translate(35,238)"/>
<path d="M0 0 C8.57142857 -0.28571429 8.57142857 -0.28571429 12 2 C10 4 10 4 7.6171875 4.1953125 C6.71226562 4.17210937 5.80734375 4.14890625 4.875 4.125 C3.50988281 4.09792969 3.50988281 4.09792969 2.1171875 4.0703125 C1.41851562 4.04710937 0.71984375 4.02390625 0 4 C0 3.67 0 3.34 0 3 C1.65 2.67 3.3 2.34 5 2 C3.35 1.67 1.7 1.34 0 1 C0 0.67 0 0.34 0 0 Z " fill="#AE8D54" transform="translate(341,190)"/>
<path d="M0 0 C3.63 0 7.26 0 11 0 C9.68 0.33 8.36 0.66 7 1 C6.67 2.32 6.34 3.64 6 5 C4.02 4.34 2.04 3.68 0 3 C0 2.01 0 1.02 0 0 Z " fill="#BA9557" transform="translate(32,175)"/>
<path d="M0 0 C2.04795423 1.9626228 2.94976638 3.4277307 3.19921875 6.26953125 C3.18858877 8.51954383 3.12958525 10.75385562 3 13 C1 12 1 12 0 9 C-0.06740865 7.43881572 -0.08514456 5.8749748 -0.0625 4.3125 C-0.05347656 3.50425781 -0.04445312 2.69601563 -0.03515625 1.86328125 C-0.02355469 1.24839844 -0.01195312 0.63351563 0 0 Z " fill="#C39951" transform="translate(37,244)"/>
<path d="M0 0 C0.66 0 1.32 0 2 0 C2.08114106 1.77007714 2.13925505 3.54122098 2.1875 5.3125 C2.23970703 6.79169922 2.23970703 6.79169922 2.29296875 8.30078125 C2 11 2 11 -1 14 C-0.67 9.38 -0.34 4.76 0 0 Z " fill="#D1C085" transform="translate(250,206)"/>
<path d="M0 0 C0.99 0.33 1.98 0.66 3 1 C2.01 3.97 1.02 6.94 0 10 C-0.99 9.34 -1.98 8.68 -3 8 C-1.125 1.125 -1.125 1.125 0 0 Z " fill="#AC8C4E" transform="translate(51,135)"/>
<path d="M0 0 C5.41538462 -0.36923077 5.41538462 -0.36923077 8.375 1.5 C8.91125 1.995 9.4475 2.49 10 3 C8.375 4.1875 8.375 4.1875 6 5 C2.75 3.625 2.75 3.625 0 2 C0 1.34 0 0.68 0 0 Z " fill="#C6A768" transform="translate(253,19)"/>
<path d="M0 0 C0.53625 0.226875 1.0725 0.45375 1.625 0.6875 C-3.375 3.6875 -3.375 3.6875 -8.375 6.6875 C-8.375 5.3675 -8.375 4.0475 -8.375 2.6875 C-2.95961538 -0.38942308 -2.95961538 -0.38942308 0 0 Z " fill="#E8D390" transform="translate(296.375,339.3125)"/>
<path d="M0 0 C0.99 0.33 1.98 0.66 3 1 C1.6875 3.5 1.6875 3.5 0 6 C-3 6 -3 6 -6 4 C-3.1875 1.9375 -3.1875 1.9375 0 0 Z " fill="#BE9C5D" transform="translate(357,222)"/>
<path d="M0 0 C0.33 1.32 0.66 2.64 1 4 C1.66 4.33 2.32 4.66 3 5 C2.34 6.65 1.68 8.3 1 10 C-0.32 9.67 -1.64 9.34 -3 9 C-2.01 6.03 -1.02 3.06 0 0 Z " fill="#D5C385" transform="translate(200,197)"/>
<path d="M0 0 C1.2077558 3.62326739 0.54311128 4.64146369 -1 8 C-0.01 8.66 0.98 9.32 2 10 C1.67 10.66 1.34 11.32 1 12 C-0.65 10.68 -2.3 9.36 -4 8 C-3.40072174 4.64404172 -2.15377564 2.62198774 0 0 Z " fill="#BA9554" transform="translate(110,325)"/>
<path d="M0 0 C-0.99 2.97 -1.98 5.94 -3 9 C-3.66 9 -4.32 9 -5 9 C-4.4140625 2.84765625 -4.4140625 2.84765625 -4 1 C-2 0 -2 0 0 0 Z " fill="#D5B774" transform="translate(344,267)"/>
<path d="M0 0 C0.66 0.33 1.32 0.66 2 1 C0.92598892 3.91517292 0.22189824 5.77810176 -2 8 C-2.99 7.67 -3.98 7.34 -5 7 C-1.125 1.125 -1.125 1.125 0 0 Z " fill="#D9BF7F" transform="translate(162,221)"/>
<path d="M0 0 C3.78786597 0.5260925 6.17152224 1.38103911 9 4 C9 4.66 9 5.32 9 6 C2.35384615 4.52307692 2.35384615 4.52307692 0.5625 1.875 C0.376875 1.25625 0.19125 0.6375 0 0 Z " fill="#D3B06D" transform="translate(280,33)"/>
<path d="M0 0 C4.62 0 9.24 0 14 0 C14 0.33 14 0.66 14 1 C12.02 1 10.04 1 8 1 C8 1.66 8 2.32 8 3 C5.6568787 2.74438677 3.32156597 2.40729228 1 2 C0.67 1.34 0.34 0.68 0 0 Z " fill="#D1C287" transform="translate(221,229)"/>
<path d="M0 0 C3.63 0 7.26 0 11 0 C11 1.32 11 2.64 11 4 C7.37 3.01 3.74 2.02 0 1 C0 0.67 0 0.34 0 0 Z " fill="#463717" transform="translate(245,7)"/>
<path d="M0 0 C3.3 0 6.6 0 10 0 C10.33 0.66 10.66 1.32 11 2 C7.01803543 3.05404945 4.01804691 2.84098656 0 2 C0 1.34 0 0.68 0 0 Z " fill="#EFD38C" transform="translate(144,191)"/>
<path d="M0 0 C3 4 3 4 2.6875 7.75 C2.460625 8.8225 2.23375 9.895 2 11 C1.01 11 0.02 11 -1 11 C-0.67 7.37 -0.34 3.74 0 0 Z " fill="#AD8C51" transform="translate(43,158)"/>
<path d="M0 0 C0.33 0.99 0.66 1.98 1 3 C-0.4375 5.6875 -0.4375 5.6875 -2 8 C-2.99 7.67 -3.98 7.34 -5 7 C-3.75023244 3.34683329 -3.32901247 2.21934164 0 0 Z " fill="#D3B572" transform="translate(75,94)"/>
<path d="M0 0 C2 3 2 3 1.75 5 C1 7 1 7 -1 10 C-2.1875 8.375 -2.1875 8.375 -3 6 C-1.625 2.75 -1.625 2.75 0 0 Z " fill="#C0A667" transform="translate(338,273)"/>
<path d="M0 0 C-0.33 0.66 -0.66 1.32 -1 2 C-4.3 2 -7.6 2 -11 2 C-11 1.34 -11 0.68 -11 0 C-6.98195309 -0.84098656 -3.98196457 -1.05404945 0 0 Z " fill="#F1DFA1" transform="translate(240,230)"/>
<path d="M0 0 C-0.3125 1.875 -0.3125 1.875 -1 4 C-1.99 4.66 -2.98 5.32 -4 6 C-4.66 4.35 -5.32 2.7 -6 1 C-4 0 -4 0 0 0 Z " fill="#130F06" transform="translate(102,62)"/>
<path d="M0 0 C0.33 0.99 0.66 1.98 1 3 C-0.9375 6.1875 -0.9375 6.1875 -3 9 C-3.66 8.34 -4.32 7.68 -5 7 C-2.25 1.125 -2.25 1.125 0 0 Z " fill="#E2C985" transform="translate(329,293)"/>
<path d="M0 0 C0.99 0.33 1.98 0.66 3 1 C3.33 3.97 3.66 6.94 4 10 C3.34 10 2.68 10 2 10 C1.34 6.7 0.68 3.4 0 0 Z " fill="#D1AA61" transform="translate(352,128)"/>
<path d="M0 0 C2.46278801 2.46278801 2.99771255 4.70676982 4 8 C2.68 8 1.36 8 0 8 C-0.66 6.35 -1.32 4.7 -2 3 C-1.34 3 -0.68 3 0 3 C0 2.01 0 1.02 0 0 Z " fill="#AE8E53" transform="translate(345,105)"/>
<path d="M0 0 C0 0.99 0 1.98 0 3 C-0.99 3.66 -1.98 4.32 -3 5 C-3 4.01 -3 3.02 -3 2 C-5.97 2 -8.94 2 -12 2 C-12 1.67 -12 1.34 -12 1 C-10.37681021 0.63762737 -8.7513642 0.28534843 -7.125 -0.0625 C-6.22007812 -0.25972656 -5.31515625 -0.45695313 -4.3828125 -0.66015625 C-2 -1 -2 -1 0 0 Z " fill="#C0A66C" transform="translate(159,226)"/>
<path d="M0 0 C1.32 1.65 2.64 3.3 4 5 C3.34 6.32 2.68 7.64 2 9 C0.4375 7.3125 0.4375 7.3125 -1 5 C-0.6875 2.25 -0.6875 2.25 0 0 Z " fill="#B79655" transform="translate(333,84)"/>
<path d="M0 0 C0 3 0 3 -2.5 5.6875 C-3.325 6.450625 -4.15 7.21375 -5 8 C-5.99 7.67 -6.98 7.34 -8 7 C-5.36 4.69 -2.72 2.38 0 0 Z " fill="#23190C" transform="translate(103,68)"/>
<path d="M0 0 C2.31 0.33 4.62 0.66 7 1 C7 1.99 7 2.98 7 4 C4.03 3.67 1.06 3.34 -2 3 C-1.34 2.01 -0.68 1.02 0 0 Z " fill="#CAAB71" transform="translate(228,28)"/>
<path d="M0 0 C2.64 1.32 5.28 2.64 8 4 C8 4.33 8 4.66 8 5 C1.375 4.25 1.375 4.25 -2 2 C-1.34 2 -0.68 2 0 2 C0 1.34 0 0.68 0 0 Z " fill="#2D1D09" transform="translate(123,372)"/>
<path d="M0 0 C5.03985731 0.44469329 7.37634988 2.71343362 11 6 C7.61121488 6 6.60242783 5.35638802 3.8125 3.5625 C2.73935547 2.88380859 2.73935547 2.88380859 1.64453125 2.19140625 C1.10183594 1.79824219 0.55914062 1.40507812 0 1 C0 0.67 0 0.34 0 0 Z " fill="#B89253" transform="translate(116,340)"/>
<path d="M0 0 C-0.375 2.4375 -0.375 2.4375 -1 5 C-1.99 5.495 -1.99 5.495 -3 6 C-3.99 5.34 -4.98 4.68 -6 4 C-2.25 0 -2.25 0 0 0 Z " fill="#CEB874" transform="translate(318,309)"/>
<path d="M0 0 C0.33 0.99 0.66 1.98 1 3 C-0.65 4.65 -2.3 6.3 -4 8 C-4.33 7.01 -4.66 6.02 -5 5 C-4.34 4.01 -3.68 3.02 -3 2 C-2.01 2 -1.02 2 0 2 C0 1.34 0 0.68 0 0 Z " fill="#DEC984" transform="translate(322,303)"/>
<path d="M0 0 C0.66 0 1.32 0 2 0 C2.33 2.64 2.66 5.28 3 8 C2.01 8 1.02 8 0 8 C0 5.36 0 2.72 0 0 Z " fill="#C29E5F" transform="translate(360,167)"/>
<path d="M0 0 C0.33 0.66 0.66 1.32 1 2 C0.125 3.9375 0.125 3.9375 -1 6 C-1.33 6.99 -1.66 7.98 -2 9 C-3.32 8.34 -4.64 7.68 -6 7 C-4.02 4.69 -2.04 2.38 0 0 Z " fill="#BDA465" transform="translate(84,81)"/>
<path d="M0 0 C0.66 0.33 1.32 0.66 2 1 C0.54550599 2.0055761 -0.91372443 3.00430435 -2.375 4 C-3.59316406 4.8353125 -3.59316406 4.8353125 -4.8359375 5.6875 C-7 7 -7 7 -9 7 C-9 6.34 -9 5.68 -9 5 C-7.54735962 4.1361871 -6.0876837 3.28419546 -4.625 2.4375 C-3.40683594 1.72400391 -3.40683594 1.72400391 -2.1640625 0.99609375 C-1.44992188 0.66738281 -0.73578125 0.33867188 0 0 Z " fill="#E3C986" transform="translate(93,63)"/>
<path d="M0 0 C1.65 1.65 3.3 3.3 5 5 C4.34 5 3.68 5 3 5 C2.67 5.66 2.34 6.32 2 7 C0.4375 5.1875 0.4375 5.1875 -1 3 C-0.67 2.01 -0.34 1.02 0 0 Z " fill="#AD8849" transform="translate(78,330)"/>
<path d="M0 0 C0.66 0.33 1.32 0.66 2 1 C0.25 3 0.25 3 -2 5 C-3.32 5 -4.64 5 -6 5 C-6 4.34 -6 3.68 -6 3 C-4.03533587 1.93224776 -2.03144641 0.93446535 0 0 Z " fill="#E8D596" transform="translate(304,324)"/>
<path d="M0 0 C0.99 0.33 1.98 0.66 3 1 C3 3.31 3 5.62 3 8 C2.34 7.01 1.68 6.02 1 5 C0.34 5.66 -0.32 6.32 -1 7 C-1.04254356 5.00045254 -1.04080783 2.99958364 -1 1 C-0.67 0.67 -0.34 0.34 0 0 Z " fill="#AD8443" transform="translate(6,245)"/>
<path d="M0 0 C0.33 0 0.66 0 1 0 C1.19456705 1.95764383 1.38044247 3.91615321 1.5625 5.875 C1.66691406 6.96554688 1.77132813 8.05609375 1.87890625 9.1796875 C2 12 2 12 1 14 C0.34 14 -0.32 14 -1 14 C-0.67 9.38 -0.34 4.76 0 0 Z " fill="#AE8F54" transform="translate(389,201)"/>
<path d="M0 0 C0.66 0.33 1.32 0.66 2 1 C1.67 2.65 1.34 4.3 1 6 C0.01 6.33 -0.98 6.66 -2 7 C-1.125 1.125 -1.125 1.125 0 0 Z " fill="#D8B66F" transform="translate(308,210)"/>
<path d="M0 0 C0 0.66 0 1.32 0 2 C2.64 2 5.28 2 8 2 C8 2.33 8 2.66 8 3 C-0.19256018 4.45295405 -0.19256018 4.45295405 -3.5625 2.5625 C-4.036875 2.046875 -4.51125 1.53125 -5 1 C-3 0 -3 0 0 0 Z " fill="#BAA871" transform="translate(227,191)"/>
<path d="M0 0 C1 3 1 3 -0.4375 6.1875 C-1.2109375 7.5796875 -1.2109375 7.5796875 -2 9 C-2.66 9 -3.32 9 -4 9 C-3.67 7.02 -3.34 5.04 -3 3 C-2.34 3 -1.68 3 -1 3 C-0.67 2.01 -0.34 1.02 0 0 Z " fill="#CFB16B" transform="translate(65,109)"/>
<path d="M0 0 C0.6875 1.625 0.6875 1.625 1 4 C-0.4375 7.25 -0.4375 7.25 -2 10 C-2.66 10 -3.32 10 -4 10 C-3.52449439 8.51965236 -3.04448784 7.04074979 -2.5625 5.5625 C-2.29566406 4.73878906 -2.02882813 3.91507812 -1.75390625 3.06640625 C-1 1 -1 1 0 0 Z " fill="#332713" transform="translate(389,254)"/>
<path d="M0 0 C1.875 0.25 1.875 0.25 4 1 C5.25 3.0625 5.25 3.0625 6 5 C4.125 4.75 4.125 4.75 2 4 C0.75 1.9375 0.75 1.9375 0 0 Z " fill="#BF9754" transform="translate(103,356)"/>
<path d="M0 0 C3.16115776 1.36983503 3.9927092 1.9890638 6 5 C4.35 4.67 2.7 4.34 1 4 C0.67 2.68 0.34 1.36 0 0 Z " fill="#C69D5A" transform="translate(91,345)"/>
<path d="M0 0 C0.33 0.66 0.66 1.32 1 2 C-0.98 4.31 -2.96 6.62 -5 9 C-5 4.61031544 -2.87194899 3.23094261 0 0 Z " fill="#2A2212" transform="translate(324,304)"/>
<path d="M0 0 C3.465 1.485 3.465 1.485 7 3 C7 3.66 7 4.32 7 5 C5.35 5 3.7 5 2 5 C1.34 3.35 0.68 1.7 0 0 Z " fill="#AD8A4F" transform="translate(47,226)"/>
<path d="M0 0 C0.1875 2.375 0.1875 2.375 0 5 C-0.99 5.66 -1.98 6.32 -3 7 C-3.6875 5.1875 -3.6875 5.1875 -4 3 C-1.64285714 0 -1.64285714 0 0 0 Z " fill="#C4A05C" transform="translate(55,130)"/>
<path d="M0 0 C0.66 0 1.32 0 2 0 C2.33 2.31 2.66 4.62 3 7 C2.34 7 1.68 7 1 7 C0.67 4.69 0.34 2.38 0 0 Z " fill="#C6A25E" transform="translate(342,101)"/>
<path d="M0 0 C0.33 0.66 0.66 1.32 1 2 C-0.65 3.98 -2.3 5.96 -4 8 C-4.66 7.67 -5.32 7.34 -6 7 C-4.02 4.69 -2.04 2.38 0 0 Z " fill="#CDAE6A" transform="translate(41,89)"/>
<path d="M0 0 C0.33 0.99 0.66 1.98 1 3 C-0.65 4.32 -2.3 5.64 -4 7 C-4.66 6.67 -5.32 6.34 -6 6 C-4.02 4.02 -2.04 2.04 0 0 Z " fill="#C5AA6B" transform="translate(56,73)"/>
</svg>
